<?xml version="1.0" encoding="UTF-8" standalone="no"?><!-- Generator: Gravit.io --><svg xmlns="http://www.w3.org/2000/svg" xmlns:xlink="http://www.w3.org/1999/xlink" style="isolation:isolate" viewBox="0 0 1280 1280" width="1280pt" height="1280pt"><defs><clipPath id="_clipPath_6KwMeu6sBRoqhWfUpdkr0xsPy7MwY8Dv"><rect width="1280" height="1280"/></clipPath></defs><g clip-path="url(#_clipPath_6KwMeu6sBRoqhWfUpdkr0xsPy7MwY8Dv)"><path d=" M 621.511 29.867 L 634.311 31.289 L 642.844 38.4 L 647.111 44.089 L 661.333 34.133 L 672.711 29.867 L 679.822 31.289 L 678.4 35.556 L 667.022 39.822 L 661.333 45.511 L 658.489 45.511 L 658.489 48.356 L 655.644 48.356 L 652.8 55.467 L 644.267 72.533 L 638.578 93.867 L 635.733 115.2 L 644.267 116.622 L 657.067 123.733 L 655.644 128 L 652.8 129.422 L 652.8 140.8 L 647.111 153.6 L 641.422 157.867 L 627.2 159.289 L 620.089 153.6 L 618.667 150.756 L 618.667 140.8 L 624.356 135.111 L 632.889 136.533 L 634.311 139.378 L 625.778 140.8 L 625.778 149.333 L 627.2 150.756 L 635.733 150.756 L 642.844 143.644 L 644.267 139.378 L 644.267 126.578 L 632.889 125.156 L 620.089 129.422 L 610.133 139.378 L 607.289 146.489 L 607.289 170.667 L 612.978 179.2 L 622.933 187.733 L 627.2 199.111 L 628.622 227.556 L 634.311 240.356 L 635.733 244.622 L 641.422 247.467 L 648.533 251.733 L 659.911 250.311 L 668.444 244.622 L 675.556 230.4 L 667.022 236.089 L 657.067 236.089 L 649.956 228.978 L 651.378 221.867 L 657.067 220.444 L 657.067 228.978 L 665.6 228.978 L 671.289 227.556 L 672.711 223.289 L 675.556 223.289 L 678.4 217.6 L 681.244 217.6 L 681.244 210.489 L 679.822 206.222 L 672.711 206.222 L 668.444 214.756 L 665.6 214.756 L 665.6 207.644 L 672.711 200.533 L 681.244 200.533 L 686.933 206.222 L 691.2 216.178 L 701.156 214.756 L 715.378 206.222 L 702.578 197.689 L 699.733 194.844 L 688.356 190.578 L 681.244 180.622 L 671.289 176.356 L 642.844 176.356 L 638.578 180.622 L 637.156 190.578 L 641.422 199.111 L 644.267 200.533 L 654.222 200.533 L 659.911 196.267 L 661.333 189.156 L 659.911 187.733 L 651.378 187.733 L 647.111 190.578 L 642.844 190.578 L 644.267 184.889 L 651.378 179.2 L 662.756 177.778 L 669.867 183.467 L 671.289 189.156 L 668.444 199.111 L 661.333 206.222 L 652.8 210.489 L 642.844 210.489 L 635.733 207.644 L 630.044 199.111 L 628.622 194.844 L 628.622 179.2 L 632.889 172.089 L 640 167.822 L 654.222 163.556 L 664.178 153.6 L 664.178 140.8 L 661.333 126.578 L 647.111 105.244 L 645.689 100.978 L 645.689 88.178 L 652.8 66.844 L 661.333 52.622 L 668.444 45.511 L 682.667 39.822 L 695.467 39.822 L 709.689 46.933 L 718.222 54.044 L 725.333 61.156 L 739.556 62.578 L 748.089 58.311 L 746.667 48.356 L 742.4 44.089 L 738.133 44.089 L 735.289 52.622 L 731.022 48.356 L 731.022 39.822 L 733.867 36.978 L 745.244 36.978 L 752.356 41.244 L 756.622 48.356 L 756.622 61.156 L 749.511 69.689 L 746.667 71.111 L 725.333 71.111 L 718.222 68.267 L 718.222 82.489 L 711.111 93.867 L 704 98.133 L 692.622 98.133 L 684.089 92.444 L 681.244 88.178 L 681.244 75.378 L 686.933 66.844 L 691.2 68.267 L 689.778 72.533 L 689.778 86.756 L 694.044 89.6 L 704 88.178 L 708.267 81.067 L 708.267 71.111 L 702.578 58.311 L 695.467 54.044 L 682.667 56.889 L 671.289 65.422 L 669.867 68.267 L 669.867 86.756 L 675.556 96.711 L 681.244 110.933 L 682.667 119.467 L 685.511 119.467 L 688.356 113.778 L 692.622 109.511 L 705.422 108.089 L 711.111 113.778 L 711.111 123.733 L 706.844 130.844 L 698.311 137.956 L 691.2 142.222 L 688.356 142.222 L 691.2 152.178 L 702.578 160.711 L 715.378 169.244 L 721.067 174.933 L 725.333 176.356 L 742.4 176.356 L 753.778 170.667 L 768 152.178 L 780.8 137.956 L 787.911 116.622 L 789.333 102.4 L 777.956 92.444 L 768 88.178 L 758.044 88.178 L 745.244 92.444 L 739.556 98.133 L 736.711 105.244 L 736.711 116.622 L 743.822 123.733 L 763.733 123.733 L 768 119.467 L 755.2 119.467 L 748.089 115.2 L 745.244 109.511 L 746.667 100.978 L 752.356 98.133 L 766.578 98.133 L 769.422 99.556 L 769.422 102.4 L 755.2 105.244 L 753.778 112.356 L 766.578 112.356 L 777.956 106.667 L 777.956 110.933 L 775.111 125.156 L 765.156 132.267 L 760.889 133.689 L 735.289 136.533 L 728.178 143.644 L 729.6 152.178 L 731.022 153.6 L 738.133 153.6 L 739.556 150.756 L 738.133 146.489 L 735.289 145.067 L 735.289 142.222 L 743.822 143.644 L 746.667 147.911 L 746.667 156.444 L 740.978 162.133 L 731.022 162.133 L 722.489 156.444 L 719.644 152.178 L 719.644 139.378 L 725.333 130.844 L 729.6 125.156 L 726.756 116.622 L 726.756 102.4 L 731.022 92.444 L 738.133 85.333 L 748.089 79.644 L 753.778 78.222 L 772.267 76.8 L 770.844 66.844 L 763.733 61.156 L 773.689 61.156 L 779.378 69.689 L 783.644 81.067 L 795.022 88.178 L 804.978 98.133 L 804.978 100.978 L 822.044 93.867 L 829.156 96.711 L 832 100.978 L 832 115.2 L 826.311 120.889 L 816.356 120.889 L 814.933 116.622 L 822.044 113.778 L 823.467 112.356 L 823.467 103.822 L 814.933 106.667 L 810.667 109.511 L 803.556 133.689 L 800.711 147.911 L 795.022 156.444 L 787.911 164.978 L 779.378 177.778 L 770.844 197.689 L 759.467 209.067 L 745.244 220.444 L 735.289 226.133 L 725.333 228.978 L 718.222 238.933 L 712.533 250.311 L 704 257.422 L 698.311 265.956 L 688.356 270.222 L 679.822 281.6 L 678.4 290.133 L 675.556 302.933 L 672.711 311.467 L 672.711 321.422 L 675.556 329.956 L 676.978 347.022 L 685.511 337.067 L 712.533 324.267 L 726.756 315.733 L 731.022 310.044 L 731.022 297.244 L 726.756 290.133 L 716.8 285.867 L 706.844 285.867 L 699.733 290.133 L 694.044 297.244 L 692.622 301.511 L 692.622 311.467 L 694.044 312.889 L 704 312.889 L 708.267 307.2 L 709.689 301.511 L 702.578 300.089 L 702.578 297.244 L 709.689 295.822 L 716.8 300.089 L 716.8 310.044 L 711.111 318.578 L 704 322.844 L 694.044 322.844 L 685.511 318.578 L 682.667 314.311 L 682.667 300.089 L 689.778 285.867 L 696.889 278.756 L 704 275.911 L 716.8 275.911 L 729.6 280.178 L 736.711 285.867 L 742.4 295.822 L 742.4 315.733 L 736.711 324.267 L 728.178 331.378 L 725.333 331.378 L 725.333 334.222 L 732.444 335.644 L 739.556 344.178 L 740.978 347.022 L 740.978 358.4 L 735.289 365.511 L 725.333 369.778 L 713.956 369.778 L 708.267 365.511 L 708.267 356.978 L 715.378 347.022 L 718.222 347.022 L 716.8 359.822 L 722.489 361.244 L 729.6 358.4 L 729.6 349.867 L 722.489 344.178 L 708.267 344.178 L 694.044 352.711 L 686.933 364.089 L 685.511 366.933 L 685.511 381.156 L 689.778 391.111 L 698.311 391.111 L 709.689 385.422 L 715.378 381.156 L 729.6 375.467 L 760.889 358.4 L 768 351.289 L 773.689 337.067 L 780.8 325.689 L 780.8 301.511 L 773.689 294.4 L 763.733 285.867 L 755.2 274.489 L 752.356 267.378 L 752.356 248.889 L 758.044 234.667 L 756.622 227.556 L 750.933 228.978 L 745.244 240.356 L 742.4 240.356 L 743.822 227.556 L 752.356 220.444 L 762.311 221.867 L 768 226.133 L 776.533 228.978 L 783.644 236.089 L 785.067 238.933 L 785.067 248.889 L 777.956 257.422 L 772.267 258.844 L 769.422 257.422 L 770.844 253.156 L 776.533 250.311 L 777.956 243.2 L 775.111 237.511 L 768 236.089 L 762.311 248.889 L 762.311 270.222 L 772.267 281.6 L 783.644 287.289 L 786.489 287.289 L 790.756 274.489 L 792.178 250.311 L 789.333 237.511 L 786.489 206.222 L 779.378 206.222 L 777.956 207.644 L 777.956 216.178 L 782.222 221.867 L 775.111 223.289 L 769.422 216.178 L 769.422 204.8 L 776.533 197.689 L 787.911 196.267 L 790.756 182.044 L 795.022 173.511 L 800.711 169.244 L 812.089 169.244 L 816.356 173.511 L 817.778 182.044 L 814.933 189.156 L 804.978 190.578 L 804.978 186.311 L 810.667 184.889 L 809.244 176.356 L 802.133 176.356 L 799.289 180.622 L 797.867 192 L 797.867 210.489 L 800.711 221.867 L 809.244 221.867 L 813.511 207.644 L 824.889 180.622 L 832 156.444 L 837.689 113.778 L 837.689 96.711 L 823.467 78.222 L 810.667 62.578 L 807.822 61.156 L 799.289 61.156 L 799.289 78.222 L 800.711 82.489 L 810.667 82.489 L 809.244 69.689 L 814.933 72.533 L 816.356 83.911 L 812.089 88.178 L 800.711 88.178 L 793.6 83.911 L 792.178 81.067 L 792.178 61.156 L 796.444 54.044 L 807.822 54.044 L 816.356 59.733 L 829.156 73.956 L 837.689 83.911 L 837.689 86.756 L 843.378 88.178 L 853.333 76.8 L 866.133 69.689 L 877.511 69.689 L 884.622 76.8 L 887.467 83.911 L 886.044 98.133 L 877.511 108.089 L 870.4 109.511 L 863.289 106.667 L 860.444 99.556 L 864.711 89.6 L 870.4 88.178 L 868.978 100.978 L 876.089 99.556 L 878.933 96.711 L 878.933 82.489 L 876.089 78.222 L 866.133 78.222 L 856.178 83.911 L 850.489 91.022 L 847.644 109.511 L 844.8 135.111 L 844.8 163.556 L 847.644 169.244 L 850.489 170.667 L 863.289 170.667 L 874.667 160.711 L 883.2 146.489 L 884.622 130.844 L 881.778 123.733 L 867.556 123.733 L 857.6 130.844 L 856.178 133.689 L 856.178 145.067 L 863.289 146.489 L 867.556 142.222 L 868.978 136.533 L 871.822 136.533 L 871.822 145.067 L 866.133 152.178 L 856.178 153.6 L 850.489 149.333 L 849.067 145.067 L 849.067 133.689 L 854.756 125.156 L 866.133 116.622 L 870.4 115.2 L 884.622 115.2 L 888.889 116.622 L 888.889 105.244 L 893.156 95.289 L 903.111 91.022 L 910.222 95.289 L 911.644 96.711 L 911.644 105.244 L 907.378 109.511 L 903.111 109.511 L 905.956 99.556 L 905.956 96.711 L 898.844 99.556 L 896 106.667 L 894.578 149.333 L 888.889 160.711 L 871.822 177.778 L 854.756 186.311 L 846.222 197.689 L 834.844 227.556 L 832 233.244 L 832 248.889 L 839.111 244.622 L 853.333 234.667 L 874.667 221.867 L 881.778 213.333 L 886.044 204.8 L 890.311 174.933 L 897.422 157.867 L 905.956 153.6 L 914.489 153.6 L 924.444 159.289 L 928.711 166.4 L 928.711 179.2 L 924.444 187.733 L 917.333 192 L 910.222 190.578 L 905.956 187.733 L 907.378 183.467 L 917.333 183.467 L 921.6 179.2 L 920.178 167.822 L 918.756 163.556 L 914.489 160.711 L 904.533 162.133 L 900.267 167.822 L 896 192 L 896 207.644 L 898.844 213.333 L 937.244 197.689 L 979.911 183.467 L 984.178 170.667 L 984.178 152.178 L 979.911 145.067 L 972.8 140.8 L 960 140.8 L 948.622 146.489 L 948.622 156.444 L 954.311 162.133 L 960 164.978 L 971.378 164.978 L 972.8 157.867 L 969.956 153.6 L 965.689 153.6 L 965.689 162.133 L 960 159.289 L 960 152.178 L 964.267 147.911 L 975.644 149.333 L 978.489 153.6 L 978.489 166.4 L 975.644 170.667 L 971.378 172.089 L 960 172.089 L 948.622 167.822 L 941.511 160.711 L 940.089 150.756 L 930.133 150.756 L 915.911 145.067 L 908.8 137.956 L 907.378 135.111 L 907.378 120.889 L 913.067 109.511 L 920.178 105.244 L 928.711 105.244 L 937.244 110.933 L 941.511 118.044 L 940.089 128 L 937.244 130.844 L 925.867 130.844 L 930.133 126.578 L 934.4 123.733 L 932.978 113.778 L 920.178 112.356 L 914.489 120.889 L 914.489 130.844 L 917.333 137.956 L 931.556 143.644 L 940.089 143.644 L 951.467 135.111 L 960 132.267 L 974.222 133.689 L 982.756 137.956 L 989.867 146.489 L 991.289 150.756 L 991.289 174.933 L 985.6 183.467 L 975.644 192 L 962.844 197.689 L 928.711 209.067 L 905.956 220.444 L 880.356 236.089 L 860.444 251.733 L 844.8 267.378 L 832 287.289 L 824.889 301.511 L 823.467 328.533 L 820.622 334.222 L 819.2 342.756 L 840.533 342.756 L 856.178 337.067 L 871.822 328.533 L 884.622 318.578 L 903.111 301.511 L 910.222 292.978 L 918.756 278.756 L 920.178 274.489 L 920.178 264.533 L 917.333 257.422 L 914.489 254.578 L 900.267 253.156 L 878.933 257.422 L 867.556 264.533 L 860.444 273.067 L 857.6 278.756 L 857.6 287.289 L 864.711 292.978 L 868.978 294.4 L 878.933 294.4 L 883.2 288.711 L 883.2 280.178 L 878.933 278.756 L 871.822 280.178 L 874.667 274.489 L 884.622 273.067 L 888.889 277.333 L 888.889 292.978 L 883.2 300.089 L 880.356 301.511 L 864.711 301.511 L 853.333 295.822 L 847.644 287.289 L 849.067 277.333 L 857.6 263.111 L 867.556 254.578 L 880.356 248.889 L 893.156 246.044 L 905.956 246.044 L 908.8 238.933 L 915.911 227.556 L 924.444 221.867 L 934.4 220.444 L 941.511 223.289 L 945.778 227.556 L 945.778 237.511 L 940.089 243.2 L 934.4 244.622 L 928.711 240.356 L 928.711 236.089 L 937.244 237.511 L 938.667 230.4 L 931.556 227.556 L 921.6 233.244 L 915.911 247.467 L 923.022 248.889 L 941.511 248.889 L 967.111 241.778 L 981.333 234.667 L 989.867 224.711 L 991.289 221.867 L 991.289 211.911 L 984.178 209.067 L 974.222 210.489 L 965.689 216.178 L 962.844 231.822 L 972.8 231.822 L 972.8 223.289 L 969.956 217.6 L 977.067 220.444 L 979.911 223.289 L 978.489 233.244 L 974.222 237.511 L 961.422 237.511 L 957.156 233.244 L 955.733 230.4 L 955.733 220.444 L 961.422 209.067 L 969.956 203.378 L 974.222 201.956 L 989.867 201.956 L 998.4 207.644 L 999.822 209.067 L 999.822 221.867 L 994.133 233.244 L 982.756 243.2 L 964.267 254.578 L 952.889 260.267 L 940.089 270.222 L 928.711 290.133 L 928.711 302.933 L 937.244 305.778 L 948.622 304.356 L 969.956 297.244 L 979.911 292.978 L 991.289 274.489 L 991.289 265.956 L 989.867 264.533 L 977.067 264.533 L 962.844 271.644 L 957.156 278.756 L 958.578 283.022 L 965.689 281.6 L 971.378 280.178 L 968.533 287.289 L 964.267 290.133 L 955.733 290.133 L 950.044 284.444 L 951.467 274.489 L 958.578 265.956 L 975.644 257.422 L 992.711 257.422 L 999.822 265.956 L 998.4 275.911 L 992.711 288.711 L 989.867 294.4 L 1009.778 291.556 L 1022.578 285.867 L 1042.489 274.489 L 1056.711 261.689 L 1066.667 253.156 L 1070.933 244.622 L 1072.356 237.511 L 1072.356 224.711 L 1066.667 214.756 L 1053.867 209.067 L 1041.067 210.489 L 1032.533 214.756 L 1028.267 221.867 L 1028.267 237.511 L 1033.956 243.2 L 1045.333 243.2 L 1049.6 237.511 L 1048.178 227.556 L 1046.756 223.289 L 1053.867 226.133 L 1055.289 228.978 L 1055.289 241.778 L 1049.6 248.889 L 1042.489 251.733 L 1029.689 250.311 L 1022.578 243.2 L 1018.311 234.667 L 1018.311 224.711 L 1022.578 213.333 L 1024 210.489 L 1011.2 201.956 L 1006.933 194.844 L 1006.933 183.467 L 1012.622 174.933 L 1018.311 170.667 L 1026.844 170.667 L 1035.378 176.356 L 1038.222 180.622 L 1038.222 189.156 L 1033.956 190.578 L 1029.689 180.622 L 1021.156 179.2 L 1015.467 183.467 L 1015.467 196.267 L 1021.156 199.111 L 1028.267 201.956 L 1041.067 200.533 L 1060.978 200.533 L 1073.778 209.067 L 1079.467 216.178 L 1082.311 226.133 L 1080.889 243.2 L 1092.267 240.356 L 1103.644 241.778 L 1107.911 244.622 L 1109.333 251.733 L 1105.067 258.844 L 1103.644 260.267 L 1092.267 260.267 L 1089.422 257.422 L 1090.844 253.156 L 1099.378 254.578 L 1102.222 250.311 L 1100.8 248.889 L 1092.267 248.889 L 1069.511 263.111 L 1046.756 284.444 L 1036.8 295.822 L 1022.578 302.933 L 994.133 314.311 L 948.622 325.689 L 917.333 328.533 L 910.222 337.067 L 898.844 342.756 L 886.044 347.022 L 874.667 352.711 L 871.822 355.556 L 897.422 356.978 L 905.956 364.089 L 907.378 366.933 L 907.378 376.889 L 900.267 384 L 894.578 386.844 L 874.667 386.844 L 867.556 379.733 L 870.4 372.622 L 877.511 371.2 L 877.511 379.733 L 890.311 379.733 L 897.422 375.467 L 897.422 366.933 L 864.711 365.511 L 844.8 372.622 L 830.578 379.733 L 810.667 396.8 L 806.4 401.067 L 786.489 406.756 L 763.733 420.978 L 755.2 432.356 L 748.089 443.733 L 733.867 452.267 L 729.6 459.378 L 725.333 470.756 L 725.333 484.978 L 723.911 494.933 L 735.289 489.244 L 746.667 479.289 L 748.089 466.489 L 742.4 465.067 L 739.556 469.333 L 739.556 479.289 L 736.711 480.711 L 732.444 476.444 L 732.444 466.489 L 738.133 457.956 L 740.978 456.533 L 749.511 456.533 L 755.2 463.644 L 756.622 466.489 L 755.2 480.711 L 749.511 489.244 L 733.867 500.622 L 722.489 506.311 L 719.644 509.156 L 718.222 517.689 L 718.222 533.333 L 723.911 539.022 L 738.133 539.022 L 759.467 526.222 L 782.222 520.533 L 790.756 521.956 L 796.444 523.378 L 803.556 520.533 L 802.133 513.422 L 800.711 503.467 L 809.244 493.511 L 824.889 484.978 L 827.733 484.978 L 830.578 477.867 L 833.422 465.067 L 830.578 440.889 L 827.733 432.356 L 814.933 428.089 L 789.333 428.089 L 779.378 433.778 L 772.267 445.156 L 770.844 450.844 L 770.844 463.644 L 775.111 470.756 L 783.644 475.022 L 796.444 475.022 L 804.978 469.333 L 806.4 467.911 L 806.4 456.533 L 799.289 449.422 L 796.444 448 L 796.444 445.156 L 806.4 445.156 L 813.511 452.267 L 816.356 460.8 L 813.511 472.178 L 807.822 479.289 L 800.711 483.556 L 795.022 484.978 L 780.8 484.978 L 769.422 477.867 L 763.733 470.756 L 762.311 466.489 L 762.311 449.422 L 768 432.356 L 779.378 422.4 L 792.178 416.711 L 813.511 416.711 L 829.156 422.4 L 834.844 426.667 L 841.956 426.667 L 844.8 423.822 L 843.378 411.022 L 849.067 403.911 L 871.822 405.333 L 901.689 392.533 L 917.333 385.422 L 960 378.311 L 968.533 366.933 L 969.956 362.667 L 969.956 348.444 L 967.111 344.178 L 958.578 342.756 L 948.622 347.022 L 945.778 351.289 L 945.778 358.4 L 954.311 356.978 L 958.578 354.133 L 957.156 361.244 L 951.467 365.511 L 941.511 365.511 L 938.667 362.667 L 938.667 349.867 L 942.933 341.333 L 951.467 335.644 L 969.956 335.644 L 977.067 339.911 L 979.911 344.178 L 979.911 348.444 L 1002.667 328.533 L 1019.733 318.578 L 1032.533 314.311 L 1046.756 314.311 L 1053.867 318.578 L 1056.711 324.267 L 1056.711 342.756 L 1048.178 359.822 L 1041.067 365.511 L 1036.8 366.933 L 1025.422 366.933 L 1018.311 361.244 L 1016.889 351.289 L 1021.156 347.022 L 1022.578 356.978 L 1026.844 359.822 L 1036.8 358.4 L 1043.911 349.867 L 1046.756 342.756 L 1046.756 328.533 L 1042.489 324.267 L 1029.689 325.689 L 1006.933 339.911 L 995.556 349.867 L 985.6 369.778 L 982.756 376.889 L 985.6 378.311 L 1009.778 379.733 L 1026.844 379.733 L 1038.222 374.044 L 1085.156 342.756 L 1107.911 324.267 L 1122.133 308.622 L 1123.556 304.356 L 1123.556 287.289 L 1116.444 280.178 L 1112.178 277.333 L 1097.956 277.333 L 1088 284.444 L 1086.578 294.4 L 1086.578 297.244 L 1093.689 300.089 L 1103.644 298.667 L 1109.333 291.556 L 1110.756 287.289 L 1113.6 287.289 L 1113.6 297.244 L 1106.489 304.356 L 1100.8 307.2 L 1090.844 307.2 L 1083.733 302.933 L 1078.044 294.4 L 1079.467 283.022 L 1086.578 274.489 L 1097.956 268.8 L 1107.911 267.378 L 1119.289 271.644 L 1130.667 280.178 L 1136.356 291.556 L 1136.356 301.511 L 1134.933 304.356 L 1146.311 304.356 L 1154.844 308.622 L 1160.533 315.733 L 1160.533 324.267 L 1154.844 331.378 L 1149.156 334.222 L 1139.2 332.8 L 1134.933 327.111 L 1136.356 322.844 L 1140.622 325.689 L 1149.156 325.689 L 1152 318.578 L 1147.733 314.311 L 1134.933 314.311 L 1120.711 327.111 L 1109.333 337.067 L 1095.111 349.867 L 1090.844 352.711 L 1102.222 356.978 L 1142.044 361.244 L 1169.067 361.244 L 1180.444 358.4 L 1176.178 348.444 L 1169.067 344.178 L 1152 344.178 L 1146.311 349.867 L 1147.733 351.289 L 1156.267 351.289 L 1163.378 348.444 L 1161.956 354.133 L 1154.844 358.4 L 1143.467 356.978 L 1139.2 351.289 L 1140.622 344.178 L 1144.889 339.911 L 1153.422 337.067 L 1169.067 337.067 L 1180.444 341.333 L 1188.978 351.289 L 1190.4 359.822 L 1183.289 366.933 L 1169.067 369.778 L 1153.422 371.2 L 1137.778 371.2 L 1115.022 368.356 L 1076.622 368.356 L 1068.089 372.622 L 1052.444 384 L 1046.756 388.267 L 1048.178 403.911 L 1062.4 406.756 L 1070.933 409.6 L 1080.889 409.6 L 1090.844 401.067 L 1095.111 393.956 L 1095.111 384 L 1092.267 381.156 L 1080.889 381.156 L 1068.089 388.267 L 1063.822 389.689 L 1065.244 395.378 L 1075.2 396.8 L 1082.311 392.533 L 1085.156 392.533 L 1083.733 399.644 L 1076.622 403.911 L 1063.822 403.911 L 1056.711 399.644 L 1053.867 395.378 L 1055.289 388.267 L 1073.778 375.467 L 1079.467 372.622 L 1095.111 372.622 L 1106.489 378.311 L 1110.756 382.578 L 1117.867 378.311 L 1132.089 378.311 L 1139.2 384 L 1140.622 391.111 L 1134.933 388.267 L 1130.667 385.422 L 1120.711 385.422 L 1110.756 392.533 L 1096.533 413.867 L 1093.689 416.711 L 1107.911 422.4 L 1126.4 426.667 L 1136.356 428.089 L 1171.911 428.089 L 1184.711 426.667 L 1196.089 420.978 L 1201.778 413.867 L 1203.2 405.333 L 1198.933 395.378 L 1188.978 389.689 L 1179.022 389.689 L 1164.8 393.956 L 1159.111 396.8 L 1156.267 402.489 L 1157.689 409.6 L 1160.533 412.444 L 1171.911 412.444 L 1179.022 408.178 L 1181.867 408.178 L 1179.022 415.289 L 1171.911 419.556 L 1159.111 419.556 L 1149.156 412.444 L 1147.733 408.178 L 1147.733 395.378 L 1153.422 388.267 L 1169.067 381.156 L 1174.756 379.733 L 1188.978 379.733 L 1198.933 382.578 L 1207.467 389.689 L 1211.733 395.378 L 1213.156 401.067 L 1213.156 415.289 L 1206.044 426.667 L 1194.667 433.778 L 1180.444 438.044 L 1149.156 439.467 L 1112.178 435.2 L 1097.956 432.356 L 1085.156 432.356 L 1065.244 436.622 L 1086.578 455.111 L 1089.422 457.956 L 1097.956 457.956 L 1096.533 449.422 L 1089.422 448 L 1092.267 442.311 L 1099.378 442.311 L 1105.067 449.422 L 1105.067 459.378 L 1099.378 466.489 L 1096.533 467.911 L 1086.578 467.911 L 1079.467 462.222 L 1072.356 453.689 L 1063.822 448 L 1046.756 440.889 L 1024 428.089 L 1008.356 425.244 L 982.756 413.867 L 972.8 413.867 L 938.667 429.511 L 911.644 442.311 L 893.156 448 L 890.311 448 L 887.467 453.689 L 880.356 470.756 L 876.089 484.978 L 867.556 496.356 L 861.867 512 L 861.867 519.111 L 866.133 524.8 L 878.933 527.644 L 884.622 531.911 L 911.644 533.333 L 927.289 539.022 L 931.556 544.711 L 931.556 548.978 L 937.244 550.4 L 941.511 556.089 L 941.511 558.933 L 952.889 558.933 L 957.156 563.2 L 968.533 568.889 L 977.067 574.578 L 984.178 571.733 L 994.133 568.889 L 1008.356 567.467 L 1026.844 567.467 L 1029.689 568.889 L 1031.111 556.089 L 1039.644 541.867 L 1056.711 527.644 L 1055.289 510.578 L 1049.6 489.244 L 1039.644 476.444 L 1025.422 465.067 L 1008.356 457.956 L 1008.356 460.8 L 1002.667 459.378 L 999.822 457.956 L 979.911 457.956 L 967.111 463.644 L 961.422 469.333 L 955.733 479.289 L 955.733 489.244 L 958.578 496.356 L 965.689 494.933 L 968.533 490.667 L 968.533 482.133 L 965.689 479.289 L 962.844 479.289 L 961.422 489.244 L 957.156 487.822 L 958.578 476.444 L 962.844 470.756 L 972.8 472.178 L 977.067 477.867 L 977.067 489.244 L 971.378 500.622 L 965.689 504.889 L 955.733 504.889 L 957.156 510.578 L 962.844 513.422 L 972.8 513.422 L 991.289 506.311 L 994.133 504.889 L 994.133 492.089 L 989.867 489.244 L 987.022 489.244 L 991.289 496.356 L 991.289 499.2 L 984.178 496.356 L 981.333 493.511 L 982.756 484.978 L 985.6 483.556 L 994.133 483.556 L 998.4 489.244 L 999.822 493.511 L 998.4 484.978 L 991.289 480.711 L 981.333 475.022 L 981.333 463.644 L 984.178 460.8 L 995.556 460.8 L 999.822 463.644 L 999.822 470.756 L 992.711 472.178 L 994.133 466.489 L 988.444 466.489 L 987.022 472.178 L 999.822 477.867 L 1008.356 489.244 L 1008.356 492.089 L 1012.622 489.244 L 1026.844 489.244 L 1036.8 494.933 L 1041.067 506.311 L 1041.067 523.378 L 1036.8 534.756 L 1028.267 546.133 L 1015.467 553.244 L 1004.089 557.511 L 994.133 557.511 L 987.022 551.822 L 987.022 537.6 L 992.711 529.067 L 999.822 524.8 L 1005.511 526.222 L 1005.511 530.489 L 998.4 534.756 L 995.556 537.6 L 995.556 548.978 L 1008.356 548.978 L 1022.578 540.444 L 1031.111 530.489 L 1032.533 523.378 L 1032.533 504.889 L 1028.267 497.778 L 1026.844 496.356 L 1016.889 497.778 L 1002.667 510.578 L 981.333 521.956 L 974.222 523.378 L 960 523.378 L 952.889 519.111 L 947.2 512 L 944.356 503.467 L 944.356 487.822 L 952.889 462.222 L 951.467 452.267 L 941.511 448 L 931.556 448 L 924.444 452.267 L 923.022 455.111 L 923.022 466.489 L 928.711 470.756 L 940.089 470.756 L 944.356 469.333 L 941.511 476.444 L 938.667 477.867 L 925.867 477.867 L 920.178 475.022 L 914.489 466.489 L 914.489 455.111 L 918.756 446.578 L 924.444 440.889 L 928.711 439.467 L 940.089 439.467 L 952.889 443.733 L 960 449.422 L 961.422 455.111 L 972.8 449.422 L 977.067 448 L 1001.244 448 L 1018.311 450.844 L 1041.067 462.222 L 1056.711 473.6 L 1075.2 487.822 L 1076.622 489.244 L 1078.044 500.622 L 1083.733 506.311 L 1085.156 509.156 L 1093.689 510.578 L 1092.267 517.689 L 1079.467 531.911 L 1075.2 541.867 L 1073.778 548.978 L 1099.378 553.244 L 1106.489 554.667 L 1115.022 550.4 L 1133.511 544.711 L 1157.689 531.911 L 1173.333 524.8 L 1188.978 514.844 L 1198.933 506.311 L 1207.467 494.933 L 1210.311 480.711 L 1208.889 469.333 L 1204.622 462.222 L 1194.667 457.956 L 1177.6 457.956 L 1164.8 462.222 L 1156.267 466.489 L 1147.733 476.444 L 1142.044 484.978 L 1142.044 493.511 L 1152 497.778 L 1167.644 497.778 L 1174.756 493.511 L 1176.178 483.556 L 1170.489 477.867 L 1163.378 477.867 L 1161.956 484.978 L 1164.8 490.667 L 1157.689 489.244 L 1154.844 484.978 L 1154.844 476.444 L 1160.533 470.756 L 1167.644 469.333 L 1177.6 472.178 L 1183.289 477.867 L 1188.978 473.6 L 1197.511 473.6 L 1200.356 477.867 L 1200.356 486.4 L 1193.244 494.933 L 1190.4 502.044 L 1194.667 503.467 L 1194.667 506.311 L 1187.556 506.311 L 1186.133 504.889 L 1186.133 493.511 L 1190.4 484.978 L 1193.244 484.978 L 1193.244 480.711 L 1186.133 487.822 L 1180.444 499.2 L 1171.911 504.889 L 1167.644 506.311 L 1150.578 506.311 L 1139.2 500.622 L 1133.511 493.511 L 1119.289 496.356 L 1105.067 496.356 L 1096.533 487.822 L 1097.956 477.867 L 1103.644 473.6 L 1113.6 475.022 L 1107.911 477.867 L 1103.644 477.867 L 1106.489 487.822 L 1122.133 487.822 L 1133.511 482.133 L 1142.044 467.911 L 1154.844 457.956 L 1170.489 452.267 L 1176.178 450.844 L 1191.822 450.844 L 1206.044 453.689 L 1210.311 449.422 L 1210.311 439.467 L 1208.889 438.044 L 1201.778 438.044 L 1194.667 445.156 L 1191.822 445.156 L 1194.667 438.044 L 1203.2 430.933 L 1211.733 430.933 L 1217.422 436.622 L 1218.844 439.467 L 1218.844 450.844 L 1214.578 460.8 L 1217.422 467.911 L 1217.422 496.356 L 1211.733 507.733 L 1225.956 510.578 L 1234.489 516.267 L 1240.178 526.222 L 1238.756 536.178 L 1234.489 541.867 L 1227.378 544.711 L 1213.156 543.289 L 1208.889 539.022 L 1207.467 527.644 L 1214.578 520.533 L 1220.267 520.533 L 1217.422 526.222 L 1216 534.756 L 1225.956 534.756 L 1230.222 530.489 L 1228.8 523.378 L 1221.689 519.111 L 1206.044 519.111 L 1197.511 524.8 L 1191.822 531.911 L 1170.489 547.556 L 1150.578 564.622 L 1146.311 567.467 L 1147.733 571.733 L 1164.8 583.111 L 1174.756 585.956 L 1188.978 585.956 L 1210.311 578.844 L 1223.111 571.733 L 1230.222 564.622 L 1230.222 557.511 L 1227.378 556.089 L 1213.156 556.089 L 1207.467 557.511 L 1208.889 563.2 L 1223.111 563.2 L 1223.111 567.467 L 1218.844 570.311 L 1206.044 570.311 L 1198.933 563.2 L 1198.933 554.667 L 1207.467 548.978 L 1211.733 547.556 L 1227.378 547.556 L 1235.911 550.4 L 1240.178 558.933 L 1238.756 570.311 L 1231.644 577.422 L 1218.844 585.956 L 1196.089 600.178 L 1191.822 601.6 L 1191.822 607.289 L 1211.733 617.244 L 1225.956 617.244 L 1233.067 610.133 L 1233.067 603.022 L 1230.222 600.178 L 1223.111 600.178 L 1221.689 610.133 L 1216 607.289 L 1214.578 601.6 L 1218.844 594.489 L 1221.689 593.067 L 1234.489 593.067 L 1240.178 600.178 L 1241.6 603.022 L 1241.6 614.4 L 1235.911 622.933 L 1228.8 627.2 L 1214.578 628.622 L 1220.267 637.156 L 1221.689 641.422 L 1221.689 655.644 L 1214.578 662.756 L 1200.356 662.756 L 1191.822 655.644 L 1190.4 642.844 L 1194.667 638.578 L 1204.622 640 L 1208.889 642.844 L 1208.889 645.689 L 1198.933 645.689 L 1198.933 652.8 L 1206.044 655.644 L 1211.733 654.222 L 1211.733 641.422 L 1204.622 632.889 L 1188.978 621.511 L 1176.178 612.978 L 1171.911 608.711 L 1146.311 597.333 L 1129.244 588.8 L 1117.867 588.8 L 1113.6 590.222 L 1103.644 590.222 L 1085.156 578.844 L 1073.778 577.422 L 1062.4 580.267 L 1053.867 587.378 L 1036.8 595.911 L 1026.844 598.756 L 1019.733 603.022 L 1016.889 603.022 L 1018.311 610.133 L 1033.956 622.933 L 1070.933 659.911 L 1078.044 664.178 L 1083.733 665.6 L 1097.956 665.6 L 1106.489 661.333 L 1109.333 657.067 L 1110.756 641.422 L 1106.489 625.778 L 1099.378 617.244 L 1085.156 610.133 L 1076.622 610.133 L 1070.933 611.556 L 1070.933 622.933 L 1075.2 627.2 L 1080.889 625.778 L 1083.733 618.667 L 1086.578 618.667 L 1089.422 628.622 L 1085.156 635.733 L 1075.2 637.156 L 1065.244 630.044 L 1060.978 622.933 L 1060.978 610.133 L 1068.089 603.022 L 1070.933 601.6 L 1089.422 601.6 L 1103.644 607.289 L 1115.022 617.244 L 1122.133 628.622 L 1123.556 641.422 L 1133.511 632.889 L 1142.044 628.622 L 1160.533 628.622 L 1169.067 638.578 L 1169.067 658.489 L 1161.956 665.6 L 1152 667.022 L 1144.889 664.178 L 1142.044 658.489 L 1143.467 649.956 L 1150.578 642.844 L 1152 645.689 L 1150.578 657.067 L 1157.689 658.489 L 1160.533 654.222 L 1160.533 644.267 L 1157.689 638.578 L 1146.311 638.578 L 1137.778 642.844 L 1134.933 642.844 L 1134.933 645.689 L 1129.244 651.378 L 1126.4 651.378 L 1117.867 668.444 L 1107.911 678.4 L 1097.956 682.667 L 1080.889 684.089 L 1059.556 676.978 L 1035.378 659.911 L 1009.778 659.911 L 989.867 667.022 L 981.333 679.822 L 974.222 701.156 L 974.222 719.644 L 979.911 728.178 L 989.867 733.867 L 995.556 735.289 L 1015.467 735.289 L 1029.689 728.178 L 1036.8 722.489 L 1041.067 712.533 L 1039.644 704 L 1033.956 698.311 L 1018.311 698.311 L 1004.089 702.578 L 994.133 702.578 L 988.444 696.889 L 987.022 689.778 L 991.289 679.822 L 999.822 676.978 L 1008.356 679.822 L 1011.2 682.667 L 1005.511 684.089 L 996.978 685.511 L 995.556 692.622 L 1002.667 694.044 L 1022.578 686.933 L 1035.378 686.933 L 1051.022 698.311 L 1063.822 709.689 L 1073.778 712.533 L 1083.733 711.111 L 1088 705.422 L 1086.578 699.733 L 1076.622 701.156 L 1073.778 705.422 L 1069.511 705.422 L 1070.933 698.311 L 1078.044 692.622 L 1088 692.622 L 1093.689 695.467 L 1095.111 698.311 L 1095.111 709.689 L 1092.267 715.378 L 1083.733 719.644 L 1066.667 719.644 L 1056.711 713.956 L 1052.444 711.111 L 1045.333 728.178 L 1038.222 735.289 L 1028.267 742.4 L 1018.311 746.667 L 994.133 746.667 L 978.489 740.978 L 967.111 731.022 L 960 712.533 L 960 682.667 L 945.778 678.4 L 930.133 672.711 L 925.867 667.022 L 924.444 657.067 L 931.556 642.844 L 942.933 638.578 L 948.622 637.156 L 951.467 630.044 L 955.733 625.778 L 968.533 625.778 L 971.378 628.622 L 971.378 637.156 L 964.267 642.844 L 968.533 648.533 L 968.533 657.067 L 965.689 659.911 L 955.733 659.911 L 951.467 657.067 L 951.467 654.222 L 962.844 654.222 L 957.156 645.689 L 952.889 644.267 L 937.244 649.956 L 934.4 664.178 L 948.622 668.444 L 974.222 668.444 L 985.6 655.644 L 998.4 651.378 L 1008.356 645.689 L 1006.933 638.578 L 991.289 625.778 L 969.956 617.244 L 948.622 615.822 L 938.667 610.133 L 932.978 603.022 L 917.333 594.489 L 904.533 590.222 L 888.889 587.378 L 873.244 585.956 L 824.889 585.956 L 824.889 588.8 L 847.644 594.489 L 850.489 595.911 L 850.489 607.289 L 860.444 610.133 L 867.556 614.4 L 871.822 615.822 L 886.044 615.822 L 894.578 612.978 L 891.733 605.867 L 881.778 604.444 L 883.2 608.711 L 887.467 611.556 L 886.044 612.978 L 874.667 611.556 L 871.822 608.711 L 871.822 601.6 L 878.933 597.333 L 890.311 597.333 L 897.422 600.178 L 901.689 605.867 L 903.111 617.244 L 897.422 622.933 L 883.2 627.2 L 864.711 628.622 L 859.022 638.578 L 857.6 647.111 L 860.444 655.644 L 866.133 654.222 L 871.822 647.111 L 881.778 645.689 L 886.044 652.8 L 881.778 662.756 L 877.511 665.6 L 867.556 667.022 L 861.867 672.711 L 857.6 674.133 L 846.222 674.133 L 837.689 667.022 L 836.267 664.178 L 836.267 652.8 L 839.111 651.378 L 843.378 664.178 L 844.8 665.6 L 857.6 665.6 L 859.022 662.756 L 853.333 659.911 L 849.067 652.8 L 849.067 631.467 L 836.267 630.044 L 813.511 641.422 L 812.089 642.844 L 812.089 654.222 L 816.356 665.6 L 820.622 672.711 L 822.044 685.511 L 817.778 692.622 L 813.511 695.467 L 802.133 695.467 L 793.6 691.2 L 789.333 684.089 L 789.333 676.978 L 796.444 671.289 L 804.978 671.289 L 809.244 675.556 L 809.244 678.4 L 796.444 676.978 L 799.289 685.511 L 812.089 685.511 L 812.089 675.556 L 803.556 661.333 L 800.711 645.689 L 780.8 644.267 L 772.267 640 L 769.422 637.156 L 769.422 625.778 L 775.111 618.667 L 780.8 615.822 L 797.867 615.822 L 804.978 620.089 L 806.4 627.2 L 800.711 631.467 L 793.6 631.467 L 792.178 628.622 L 796.444 627.2 L 797.867 622.933 L 785.067 622.933 L 779.378 627.2 L 780.8 634.311 L 802.133 634.311 L 829.156 620.089 L 829.156 617.244 L 822.044 614.4 L 800.711 610.133 L 797.867 608.711 L 797.867 604.444 L 780.8 601.6 L 762.311 603.022 L 753.778 608.711 L 746.667 617.244 L 729.6 620.089 L 723.911 624.356 L 711.111 651.378 L 699.733 664.178 L 688.356 681.244 L 682.667 699.733 L 675.556 709.689 L 672.711 723.911 L 667.022 735.289 L 667.022 738.133 L 685.511 749.511 L 708.267 759.467 L 722.489 765.156 L 739.556 769.422 L 753.778 772.267 L 765.156 782.222 L 768 785.067 L 823.467 786.489 L 846.222 789.333 L 864.711 793.6 L 918.756 795.022 L 932.978 796.444 L 960 793.6 L 998.4 793.6 L 1016.889 799.289 L 1029.689 806.4 L 1033.956 809.244 L 1032.533 816.356 L 1026.844 819.2 L 1005.511 809.244 L 989.867 806.4 L 972.8 806.4 L 945.778 812.089 L 942.933 813.511 L 920.178 813.511 L 913.067 812.089 L 883.2 812.089 L 849.067 810.667 L 823.467 806.4 L 807.822 806.4 L 809.244 812.089 L 822.044 817.778 L 836.267 820.622 L 883.2 820.622 L 905.956 817.778 L 927.289 822.044 L 927.289 827.733 L 913.067 827.733 L 888.889 834.844 L 876.089 836.267 L 836.267 836.267 L 836.267 839.111 L 841.956 840.533 L 878.933 840.533 L 903.111 837.689 L 934.4 829.156 L 957.156 814.933 L 971.378 810.667 L 991.289 810.667 L 998.4 814.933 L 1001.244 819.2 L 1001.244 836.267 L 995.556 847.644 L 982.756 859.022 L 977.067 860.444 L 967.111 860.444 L 955.733 854.756 L 952.889 849.067 L 952.889 839.111 L 960 827.733 L 968.533 822.044 L 977.067 822.044 L 984.178 829.156 L 984.178 837.689 L 977.067 846.222 L 969.956 844.8 L 967.111 840.533 L 968.533 833.422 L 972.8 832 L 975.644 837.689 L 977.067 833.422 L 975.644 830.578 L 965.689 832 L 961.422 839.111 L 961.422 849.067 L 967.111 851.911 L 979.911 850.489 L 989.867 841.956 L 992.711 836.267 L 992.711 823.467 L 989.867 819.2 L 971.378 819.2 L 957.156 824.889 L 950.044 832 L 947.2 836.267 L 947.2 851.911 L 952.889 860.444 L 979.911 871.822 L 995.556 881.778 L 1006.933 891.733 L 1018.311 907.378 L 1031.111 923.022 L 1038.222 934.4 L 1038.222 938.667 L 1014.044 942.933 L 1008.356 941.511 L 998.4 927.289 L 991.289 920.178 L 979.911 905.956 L 967.111 896 L 950.044 888.889 L 924.444 884.622 L 904.533 877.511 L 897.422 876.089 L 881.778 876.089 L 900.267 884.622 L 898.844 887.467 L 878.933 887.467 L 867.556 884.622 L 849.067 878.933 L 826.311 874.667 L 796.444 874.667 L 790.756 877.511 L 793.6 883.2 L 804.978 887.467 L 827.733 891.733 L 841.956 896 L 859.022 897.422 L 896 897.422 L 932.978 891.733 L 947.2 891.733 L 967.111 900.267 L 969.956 903.111 L 968.533 908.8 L 962.844 920.178 L 964.267 934.4 L 977.067 961.422 L 985.6 982.756 L 994.133 1021.156 L 994.133 1035.378 L 987.022 1036.8 L 968.533 1036.8 L 965.689 1026.844 L 962.844 1005.511 L 957.156 989.867 L 947.2 972.8 L 935.822 958.578 L 915.911 938.667 L 914.489 935.822 L 880.356 931.556 L 876.089 930.133 L 860.444 928.711 L 864.711 935.822 L 877.511 947.2 L 890.311 955.733 L 901.689 958.578 L 928.711 958.578 L 937.244 965.689 L 947.2 981.333 L 941.511 984.178 L 928.711 989.867 L 918.756 1001.244 L 917.333 1036.8 L 915.911 1056.711 L 910.222 1078.044 L 901.689 1100.8 L 898.844 1105.067 L 886.044 1103.644 L 873.244 1097.956 L 877.511 1083.733 L 884.622 1063.822 L 887.467 1052.444 L 887.467 1025.422 L 880.356 998.4 L 876.089 991.289 L 863.289 975.644 L 853.333 964.267 L 844.8 958.578 L 824.889 942.933 L 797.867 924.444 L 783.644 914.489 L 755.2 898.844 L 738.133 890.311 L 731.022 887.467 L 736.711 900.267 L 740.978 904.533 L 740.978 907.378 L 749.511 910.222 L 765.156 923.022 L 780.8 934.4 L 796.444 944.356 L 797.867 947.2 L 787.911 948.622 L 777.956 944.356 L 760.889 932.978 L 740.978 920.178 L 722.489 905.956 L 702.578 888.889 L 695.467 880.356 L 695.467 877.511 L 686.933 877.511 L 694.044 884.622 L 705.422 898.844 L 716.8 908.8 L 732.444 924.444 L 749.511 935.822 L 763.733 947.2 L 772.267 957.156 L 783.644 967.111 L 796.444 978.489 L 813.511 1001.244 L 824.889 1019.733 L 832 1039.644 L 832 1076.622 L 826.311 1088 L 819.2 1096.533 L 789.333 1116.444 L 779.378 1127.822 L 776.533 1139.2 L 776.533 1154.844 L 783.644 1161.956 L 793.6 1163.378 L 806.4 1159.111 L 814.933 1149.156 L 817.778 1143.467 L 817.778 1130.667 L 810.667 1122.133 L 802.133 1122.133 L 795.022 1127.822 L 790.756 1134.933 L 789.333 1146.311 L 790.756 1150.578 L 797.867 1149.156 L 804.978 1142.044 L 804.978 1139.2 L 797.867 1140.622 L 795.022 1142.044 L 796.444 1134.933 L 802.133 1130.667 L 809.244 1132.089 L 812.089 1134.933 L 810.667 1147.733 L 804.978 1154.844 L 799.289 1157.689 L 786.489 1157.689 L 782.222 1153.422 L 780.8 1144.889 L 785.067 1127.822 L 790.756 1119.289 L 799.289 1113.6 L 812.089 1113.6 L 820.622 1119.289 L 824.889 1124.978 L 826.311 1130.667 L 826.311 1140.622 L 822.044 1153.422 L 809.244 1167.644 L 797.867 1171.911 L 785.067 1171.911 L 773.689 1166.222 L 768 1159.111 L 766.578 1154.844 L 766.578 1139.2 L 770.844 1124.978 L 779.378 1113.6 L 797.867 1095.111 L 806.4 1088 L 816.356 1068.089 L 816.356 1045.333 L 812.089 1031.111 L 803.556 1019.733 L 792.178 1011.2 L 782.222 1006.933 L 769.422 1008.356 L 753.778 1016.889 L 748.089 1018.311 L 733.867 1008.356 L 733.867 1005.511 L 745.244 998.4 L 750.933 989.867 L 750.933 974.222 L 746.667 965.689 L 725.333 948.622 L 712.533 938.667 L 696.889 924.444 L 681.244 915.911 L 672.711 914.489 L 645.689 914.489 L 620.089 915.911 L 587.378 915.911 L 570.311 920.178 L 550.4 934.4 L 541.867 944.356 L 534.756 958.578 L 526.222 972.8 L 524.8 979.911 L 524.8 994.133 L 533.333 1006.933 L 520.533 1019.733 L 513.422 1016.889 L 502.044 1009.778 L 497.778 1008.356 L 480.711 1008.356 L 472.178 1012.622 L 463.644 1025.422 L 457.956 1045.333 L 457.956 1062.4 L 465.067 1080.889 L 472.178 1093.689 L 482.133 1107.911 L 497.778 1130.667 L 513.422 1152 L 519.111 1159.111 L 519.111 1161.956 L 509.156 1164.8 L 492.089 1144.889 L 469.333 1113.6 L 456.533 1096.533 L 448 1083.733 L 440.889 1065.244 L 439.467 1043.911 L 443.733 1028.267 L 457.956 995.556 L 469.333 979.911 L 479.289 967.111 L 496.356 950.044 L 513.422 940.089 L 524.8 930.133 L 546.133 915.911 L 560.356 905.956 L 577.422 890.311 L 580.267 886.044 L 580.267 877.511 L 566.044 888.889 L 554.667 898.844 L 536.178 917.333 L 521.956 924.444 L 507.733 934.4 L 487.822 944.356 L 480.711 948.622 L 476.444 948.622 L 479.289 942.933 L 486.4 934.4 L 499.2 924.444 L 514.844 914.489 L 530.489 903.111 L 536.178 900.267 L 539.022 894.578 L 539.022 886.044 L 530.489 887.467 L 521.956 891.733 L 496.356 905.956 L 475.022 920.178 L 460.8 930.133 L 452.267 937.244 L 449.422 937.244 L 449.422 940.089 L 446.578 940.089 L 443.733 945.778 L 429.511 957.156 L 415.289 965.689 L 403.911 978.489 L 395.378 991.289 L 388.267 1015.467 L 385.422 1039.644 L 385.422 1062.4 L 392.533 1099.378 L 393.956 1106.489 L 389.689 1109.333 L 366.933 1113.6 L 362.667 1107.911 L 355.556 1079.467 L 352.711 1059.556 L 351.289 1021.156 L 345.6 1006.933 L 332.8 996.978 L 321.422 994.133 L 327.111 982.756 L 337.067 968.533 L 338.489 967.111 L 368.356 962.844 L 391.111 951.467 L 403.911 941.511 L 411.022 932.978 L 411.022 931.556 L 386.844 931.556 L 368.356 935.822 L 352.711 944.356 L 334.222 961.422 L 325.689 972.8 L 315.733 988.444 L 308.622 1004.089 L 304.356 1024 L 302.933 1036.8 L 300.089 1039.644 L 274.489 1036.8 L 273.067 1035.378 L 274.489 1021.156 L 280.178 996.978 L 285.867 982.756 L 295.822 962.844 L 301.511 947.2 L 304.356 934.4 L 302.933 924.444 L 295.822 918.756 L 298.667 913.067 L 305.778 907.378 L 320 898.844 L 351.289 901.689 L 412.444 903.111 L 436.622 900.267 L 466.489 893.156 L 480.711 887.467 L 486.4 883.2 L 486.4 876.089 L 473.6 874.667 L 432.356 874.667 L 408.178 880.356 L 389.689 886.044 L 364.089 884.622 L 365.511 881.778 L 378.311 880.356 L 379.733 877.511 L 366.933 877.511 L 342.756 881.778 L 315.733 891.733 L 295.822 905.956 L 275.911 924.444 L 268.8 931.556 L 254.578 947.2 L 240.356 945.778 L 227.556 941.511 L 228.978 935.822 L 238.933 923.022 L 251.733 908.8 L 265.956 896 L 278.756 886.044 L 301.511 870.4 L 317.156 861.867 L 321.422 853.333 L 321.422 839.111 L 315.733 830.578 L 308.622 824.889 L 298.667 822.044 L 285.867 822.044 L 277.333 827.733 L 273.067 833.422 L 274.489 843.378 L 287.289 850.489 L 290.133 851.911 L 300.089 851.911 L 307.2 847.644 L 308.622 843.378 L 305.778 836.267 L 295.822 832 L 288.711 834.844 L 291.556 841.956 L 300.089 841.956 L 297.244 847.644 L 288.711 847.644 L 283.022 841.956 L 281.6 833.422 L 287.289 826.311 L 297.244 824.889 L 308.622 829.156 L 317.156 839.111 L 317.156 849.067 L 310.044 856.178 L 298.667 859.022 L 284.444 857.6 L 270.222 849.067 L 264.533 840.533 L 264.533 830.578 L 271.644 820.622 L 283.022 814.933 L 300.089 813.511 L 325.689 822.044 L 358.4 839.111 L 366.933 843.378 L 381.156 846.222 L 409.6 846.222 L 439.467 839.111 L 455.111 832 L 456.533 829.156 L 445.156 832 L 430.933 836.267 L 415.289 837.689 L 392.533 837.689 L 376.889 834.844 L 345.6 819.2 L 334.222 816.356 L 318.578 814.933 L 324.267 809.244 L 328.533 807.822 L 348.444 807.822 L 356.978 810.667 L 371.2 817.778 L 386.844 822.044 L 423.822 820.622 L 446.578 813.511 L 463.644 806.4 L 463.644 804.978 L 436.622 804.978 L 429.511 806.4 L 374.044 806.4 L 354.133 802.133 L 325.689 802.133 L 295.822 806.4 L 267.378 809.244 L 246.044 814.933 L 238.933 819.2 L 231.822 816.356 L 227.556 810.667 L 238.933 803.556 L 267.378 793.6 L 298.667 789.333 L 315.733 785.067 L 331.378 782.222 L 351.289 782.222 L 378.311 787.911 L 399.644 789.333 L 422.4 789.333 L 443.733 786.489 L 460.8 783.644 L 469.333 779.378 L 480.711 776.533 L 503.467 776.533 L 514.844 769.422 L 523.378 756.622 L 533.333 752.356 L 540.444 743.822 L 546.133 729.6 L 558.933 716.8 L 564.622 702.578 L 570.311 695.467 L 581.689 679.822 L 583.111 674.133 L 576 659.911 L 571.733 635.733 L 566.044 628.622 L 557.511 621.511 L 553.244 617.244 L 534.756 611.556 L 517.689 605.867 L 509.156 598.756 L 506.311 591.644 L 507.733 581.689 L 512 577.422 L 524.8 578.844 L 533.333 585.956 L 534.756 591.644 L 531.911 597.333 L 526.222 598.756 L 519.111 595.911 L 517.689 590.222 L 526.222 591.644 L 526.222 587.378 L 516.267 584.533 L 514.844 585.956 L 514.844 594.489 L 521.956 600.178 L 524.8 601.6 L 551.822 601.6 L 551.822 585.956 L 540.444 581.689 L 530.489 578.844 L 521.956 568.889 L 513.422 563.2 L 509.156 553.244 L 497.778 546.133 L 492.089 539.022 L 479.289 534.756 L 457.956 533.333 L 455.111 527.644 L 439.467 530.489 L 415.289 541.867 L 389.689 547.556 L 382.578 550.4 L 379.733 556.089 L 374.044 564.622 L 366.933 571.733 L 364.089 577.422 L 352.711 584.533 L 345.6 590.222 L 342.756 590.222 L 339.911 598.756 L 331.378 615.822 L 329.956 628.622 L 329.956 654.222 L 335.644 662.756 L 339.911 668.444 L 342.756 676.978 L 355.556 682.667 L 381.156 681.244 L 402.489 678.4 L 419.556 672.711 L 438.044 657.067 L 442.311 649.956 L 443.733 634.311 L 438.044 615.822 L 432.356 612.978 L 418.133 615.822 L 412.444 620.089 L 409.6 620.089 L 406.756 625.778 L 403.911 630.044 L 403.911 644.267 L 411.022 649.956 L 422.4 649.956 L 425.244 648.533 L 426.667 637.156 L 412.444 637.156 L 415.289 631.467 L 420.978 630.044 L 430.933 632.889 L 435.2 640 L 433.778 648.533 L 428.089 655.644 L 425.244 657.067 L 411.022 657.067 L 399.644 651.378 L 395.378 645.689 L 395.378 638.578 L 392.533 640 L 371.2 640 L 361.244 631.467 L 359.822 618.667 L 362.667 611.556 L 369.778 605.867 L 386.844 605.867 L 396.8 614.4 L 396.8 621.511 L 391.111 625.778 L 384 625.778 L 384 622.933 L 388.267 620.089 L 388.267 615.822 L 385.422 614.4 L 369.778 614.4 L 368.356 618.667 L 368.356 628.622 L 375.467 632.889 L 386.844 632.889 L 395.378 628.622 L 403.911 615.822 L 418.133 607.289 L 429.511 604.444 L 438.044 605.867 L 445.156 610.133 L 443.733 588.8 L 430.933 574.578 L 423.822 567.467 L 420.978 556.089 L 425.244 546.133 L 430.933 541.867 L 439.467 541.867 L 446.578 548.978 L 446.578 557.511 L 442.311 561.778 L 435.2 560.356 L 433.778 557.511 L 439.467 556.089 L 438.044 548.978 L 430.933 550.4 L 430.933 560.356 L 440.889 571.733 L 449.422 580.267 L 449.422 583.111 L 459.378 577.422 L 466.489 578.844 L 473.6 590.222 L 477.867 598.756 L 476.444 605.867 L 473.6 605.867 L 475.022 615.822 L 467.911 617.244 L 472.178 625.778 L 465.067 624.356 L 463.644 622.933 L 463.644 615.822 L 467.911 612.978 L 467.911 604.444 L 469.333 597.333 L 465.067 588.8 L 459.378 587.378 L 455.111 593.067 L 453.689 607.289 L 452.267 645.689 L 448 658.489 L 465.067 651.378 L 476.444 651.378 L 482.133 655.644 L 483.556 659.911 L 483.556 672.711 L 477.867 682.667 L 470.756 686.933 L 462.222 686.933 L 456.533 681.244 L 456.533 672.711 L 460.8 665.6 L 467.911 662.756 L 470.756 664.178 L 470.756 667.022 L 465.067 668.444 L 463.644 678.4 L 467.911 679.822 L 475.022 676.978 L 476.444 662.756 L 475.022 659.911 L 465.067 659.911 L 450.844 668.444 L 433.778 675.556 L 423.822 681.244 L 413.867 685.511 L 396.8 691.2 L 372.622 694.044 L 352.711 694.044 L 334.222 688.356 L 325.689 685.511 L 290.133 685.511 L 278.756 679.822 L 270.222 676.978 L 260.267 676.978 L 256 682.667 L 256 691.2 L 264.533 692.622 L 265.956 688.356 L 270.222 689.778 L 267.378 696.889 L 263.111 699.733 L 253.156 698.311 L 247.467 691.2 L 248.889 678.4 L 257.422 668.444 L 270.222 667.022 L 287.289 674.133 L 290.133 675.556 L 300.089 675.556 L 304.356 669.867 L 301.511 661.333 L 300.089 649.956 L 298.667 648.533 L 283.022 647.111 L 283.022 644.267 L 251.733 659.911 L 236.089 665.6 L 209.067 667.022 L 192 664.178 L 180.622 657.067 L 177.778 651.378 L 179.2 640 L 186.311 628.622 L 200.533 617.244 L 221.867 608.711 L 247.467 604.444 L 258.844 603.022 L 260.267 600.178 L 260.267 587.378 L 254.578 585.956 L 243.2 585.956 L 240.356 587.378 L 240.356 593.067 L 248.889 593.067 L 246.044 598.756 L 240.356 600.178 L 234.667 597.333 L 233.244 590.222 L 236.089 583.111 L 241.778 578.844 L 251.733 577.422 L 261.689 581.689 L 265.956 585.956 L 268.8 591.644 L 267.378 604.444 L 265.956 612.978 L 267.378 621.511 L 264.533 628.622 L 257.422 632.889 L 244.622 632.889 L 240.356 628.622 L 240.356 624.356 L 246.044 625.778 L 256 625.778 L 258.844 624.356 L 258.844 617.244 L 256 614.4 L 236.089 614.4 L 219.022 618.667 L 223.289 625.778 L 224.711 637.156 L 220.444 647.111 L 217.6 648.533 L 209.067 648.533 L 203.378 644.267 L 203.378 637.156 L 207.644 632.889 L 213.333 632.889 L 213.333 635.733 L 210.489 637.156 L 209.067 642.844 L 216.178 641.422 L 217.6 632.889 L 213.333 625.778 L 204.8 625.778 L 192 637.156 L 189.156 648.533 L 192 652.8 L 200.533 655.644 L 230.4 655.644 L 244.622 649.956 L 263.111 637.156 L 270.222 632.889 L 274.489 628.622 L 277.333 628.622 L 280.178 622.933 L 291.556 611.556 L 300.089 604.444 L 310.044 593.067 L 318.578 580.267 L 324.267 566.044 L 321.422 567.467 L 311.467 567.467 L 302.933 563.2 L 283.022 560.356 L 273.067 560.356 L 256 568.889 L 241.778 568.889 L 234.667 561.778 L 234.667 556.089 L 238.933 557.511 L 238.933 560.356 L 243.2 561.778 L 253.156 561.778 L 256 560.356 L 257.422 556.089 L 246.044 553.244 L 231.822 541.867 L 194.844 530.489 L 164.978 526.222 L 150.756 529.067 L 136.533 536.178 L 116.622 550.4 L 106.667 566.044 L 102.4 574.578 L 100.978 583.111 L 100.978 600.178 L 108.089 614.4 L 115.2 620.089 L 139.378 630.044 L 146.489 631.467 L 159.289 631.467 L 169.244 627.2 L 173.511 625.778 L 176.356 620.089 L 179.2 612.978 L 180.622 598.756 L 176.356 590.222 L 176.356 587.378 L 167.822 584.533 L 150.756 584.533 L 146.489 587.378 L 146.489 597.333 L 152.178 600.178 L 152.178 591.644 L 157.867 594.489 L 156.444 601.6 L 149.333 605.867 L 142.222 603.022 L 137.956 595.911 L 137.956 585.956 L 140.8 580.267 L 149.333 576 L 169.244 576 L 174.933 577.422 L 186.311 577.422 L 192 573.156 L 193.422 560.356 L 190.578 554.667 L 186.311 554.667 L 186.311 564.622 L 182.044 564.622 L 180.622 561.778 L 180.622 551.822 L 184.889 547.556 L 193.422 547.556 L 200.533 554.667 L 201.956 558.933 L 201.956 568.889 L 197.689 580.267 L 186.311 587.378 L 190.578 600.178 L 190.578 612.978 L 186.311 624.356 L 177.778 634.311 L 163.556 641.422 L 156.444 642.844 L 142.222 642.844 L 116.622 634.311 L 113.778 632.889 L 113.778 657.067 L 116.622 661.333 L 123.733 661.333 L 125.156 654.222 L 118.044 652.8 L 119.467 647.111 L 128 647.111 L 132.267 651.378 L 132.267 664.178 L 126.578 669.867 L 118.044 671.289 L 109.511 667.022 L 105.244 658.489 L 105.244 654.222 L 92.444 654.222 L 85.333 645.689 L 85.333 634.311 L 89.6 630.044 L 98.133 630.044 L 99.556 634.311 L 92.444 637.156 L 93.867 644.267 L 95.289 645.689 L 103.822 645.689 L 105.244 644.267 L 105.244 631.467 L 93.867 618.667 L 86.756 605.867 L 83.911 588.8 L 71.111 580.267 L 51.2 580.267 L 46.933 597.333 L 49.778 607.289 L 54.044 610.133 L 62.578 608.711 L 66.844 601.6 L 65.422 593.067 L 61.156 591.644 L 59.733 597.333 L 64 598.756 L 62.578 601.6 L 55.467 600.178 L 54.044 598.756 L 54.044 588.8 L 58.311 584.533 L 68.267 585.956 L 73.956 593.067 L 73.956 603.022 L 68.267 614.4 L 58.311 618.667 L 51.2 617.244 L 41.244 608.711 L 38.4 600.178 L 39.822 585.956 L 45.511 577.422 L 45.511 571.733 L 42.667 568.889 L 42.667 556.089 L 48.356 550.4 L 56.889 550.4 L 62.578 556.089 L 61.156 563.2 L 55.467 566.044 L 52.622 563.2 L 56.889 561.778 L 56.889 556.089 L 49.778 556.089 L 49.778 566.044 L 55.467 570.311 L 82.489 570.311 L 89.6 563.2 L 92.444 563.2 L 95.289 556.089 L 106.667 537.6 L 113.778 531.911 L 135.111 519.111 L 137.956 514.844 L 132.267 512 L 91.022 506.311 L 79.644 503.467 L 66.844 503.467 L 59.733 507.733 L 56.889 507.733 L 55.467 512 L 55.467 524.8 L 61.156 534.756 L 68.267 539.022 L 79.644 540.444 L 86.756 536.178 L 89.6 533.333 L 89.6 524.8 L 85.333 521.956 L 78.222 521.956 L 76.8 527.644 L 83.911 529.067 L 79.644 533.333 L 72.533 531.911 L 69.689 526.222 L 71.111 519.111 L 75.378 514.844 L 82.489 513.422 L 92.444 516.267 L 96.711 521.956 L 98.133 530.489 L 93.867 539.022 L 86.756 546.133 L 82.489 547.556 L 69.689 547.556 L 61.156 543.289 L 54.044 537.6 L 46.933 524.8 L 46.933 513.422 L 51.2 504.889 L 56.889 499.2 L 54.044 492.089 L 52.622 489.244 L 52.622 475.022 L 55.467 469.333 L 61.156 466.489 L 68.267 467.911 L 71.111 472.178 L 69.689 480.711 L 64 483.556 L 65.422 476.444 L 66.844 472.178 L 58.311 473.6 L 59.733 486.4 L 65.422 492.089 L 71.111 493.511 L 82.489 493.511 L 89.6 492.089 L 86.756 486.4 L 75.378 470.756 L 66.844 457.956 L 65.422 450.844 L 65.422 428.089 L 71.111 416.711 L 82.489 406.756 L 98.133 402.489 L 116.622 402.489 L 130.844 408.178 L 142.222 415.289 L 149.333 425.244 L 155.022 443.733 L 162.133 449.422 L 170.667 448 L 172.089 440.889 L 163.556 442.311 L 164.978 435.2 L 166.4 433.778 L 174.933 433.778 L 179.2 438.044 L 180.622 446.578 L 174.933 455.111 L 170.667 457.956 L 157.867 457.956 L 152.178 455.111 L 146.489 456.533 L 137.956 462.222 L 132.267 463.644 L 118.044 463.644 L 105.244 456.533 L 99.556 449.422 L 96.711 433.778 L 99.556 423.822 L 108.089 416.711 L 116.622 415.289 L 125.156 419.556 L 129.422 425.244 L 128 435.2 L 123.733 438.044 L 116.622 438.044 L 113.778 433.778 L 115.2 428.089 L 116.622 432.356 L 122.311 432.356 L 119.467 425.244 L 110.933 423.822 L 108.089 423.822 L 106.667 430.933 L 106.667 442.311 L 109.511 449.422 L 116.622 452.267 L 135.111 452.267 L 142.222 445.156 L 142.222 433.778 L 136.533 422.4 L 126.578 415.289 L 112.356 412.444 L 100.978 412.444 L 85.333 418.133 L 78.222 423.822 L 76.8 428.089 L 76.8 445.156 L 81.067 456.533 L 86.756 463.644 L 99.556 473.6 L 116.622 483.556 L 133.689 489.244 L 159.289 494.933 L 193.422 494.933 L 196.267 492.089 L 187.733 469.333 L 187.733 452.267 L 192 442.311 L 199.111 436.622 L 201.956 435.2 L 217.6 435.2 L 224.711 436.622 L 231.822 429.511 L 240.356 429.511 L 244.622 435.2 L 243.2 442.311 L 240.356 440.889 L 240.356 436.622 L 231.822 438.044 L 230.4 443.733 L 234.667 449.422 L 236.089 453.689 L 236.089 465.067 L 230.4 472.178 L 220.444 472.178 L 224.711 482.133 L 233.244 482.133 L 230.4 487.822 L 224.711 489.244 L 217.6 484.978 L 214.756 477.867 L 214.756 469.333 L 210.489 467.911 L 209.067 457.956 L 211.911 455.111 L 219.022 456.533 L 220.444 460.8 L 213.333 459.378 L 216.178 465.067 L 223.289 466.489 L 227.556 465.067 L 227.556 452.267 L 220.444 445.156 L 217.6 443.733 L 203.378 443.733 L 197.689 449.422 L 196.267 463.644 L 200.533 477.867 L 209.067 489.244 L 219.022 499.2 L 228.978 506.311 L 268.8 521.956 L 301.511 521.956 L 318.578 517.689 L 349.867 503.467 L 361.244 493.511 L 365.511 492.089 L 381.156 490.667 L 371.2 484.978 L 345.6 479.289 L 334.222 477.867 L 310.044 477.867 L 300.089 482.133 L 294.4 487.822 L 291.556 496.356 L 291.556 503.467 L 298.667 507.733 L 311.467 507.733 L 310.044 497.778 L 304.356 496.356 L 300.089 496.356 L 300.089 493.511 L 307.2 490.667 L 315.733 492.089 L 318.578 496.356 L 318.578 509.156 L 312.889 514.844 L 298.667 516.267 L 287.289 512 L 283.022 507.733 L 281.6 499.2 L 285.867 483.556 L 287.289 479.289 L 274.489 470.756 L 265.956 460.8 L 264.533 456.533 L 264.533 445.156 L 268.8 438.044 L 273.067 433.778 L 277.333 432.356 L 298.667 432.356 L 308.622 436.622 L 312.889 445.156 L 311.467 453.689 L 308.622 456.533 L 298.667 455.111 L 292.978 448 L 292.978 445.156 L 298.667 448 L 305.778 449.422 L 304.356 443.733 L 295.822 439.467 L 281.6 439.467 L 274.489 443.733 L 273.067 445.156 L 273.067 456.533 L 281.6 466.489 L 294.4 470.756 L 334.222 467.911 L 325.689 450.844 L 312.889 429.511 L 292.978 419.556 L 273.067 411.022 L 258.844 405.333 L 256 403.911 L 244.622 403.911 L 209.067 416.711 L 200.533 422.4 L 186.311 425.244 L 177.778 420.978 L 167.822 405.333 L 157.867 398.222 L 128 385.422 L 113.778 378.311 L 103.822 378.311 L 100.978 381.156 L 102.4 391.111 L 110.933 392.533 L 109.511 382.578 L 113.778 384 L 115.2 386.844 L 115.2 395.378 L 112.356 398.222 L 102.4 398.222 L 95.289 393.956 L 92.444 389.689 L 92.444 379.733 L 95.289 374.044 L 99.556 371.2 L 115.2 369.778 L 113.778 362.667 L 113.778 338.489 L 118.044 331.378 L 123.733 328.533 L 142.222 328.533 L 162.133 338.489 L 172.089 349.867 L 176.356 358.4 L 176.356 368.356 L 169.244 375.467 L 153.6 375.467 L 143.644 369.778 L 140.8 365.511 L 140.8 358.4 L 145.067 355.556 L 153.6 356.978 L 156.444 362.667 L 147.911 362.667 L 153.6 368.356 L 166.4 369.778 L 169.244 369.778 L 167.822 358.4 L 159.289 347.022 L 146.489 338.489 L 135.111 335.644 L 125.156 337.067 L 122.311 339.911 L 122.311 358.4 L 128 372.622 L 139.378 379.733 L 150.756 382.578 L 164.978 384 L 180.622 389.689 L 190.578 392.533 L 194.844 388.267 L 207.644 389.689 L 217.6 382.578 L 226.133 371.2 L 219.022 364.089 L 207.644 358.4 L 182.044 352.711 L 170.667 339.911 L 162.133 325.689 L 152.178 315.733 L 143.644 314.311 L 142.222 320 L 153.6 322.844 L 152.178 325.689 L 142.222 327.111 L 135.111 322.844 L 133.689 314.311 L 139.378 307.2 L 149.333 305.778 L 159.289 311.467 L 167.822 321.422 L 174.933 320 L 183.467 310.044 L 190.578 302.933 L 197.689 291.556 L 201.956 284.444 L 201.956 267.378 L 194.844 256 L 190.578 254.578 L 179.2 254.578 L 170.667 258.844 L 163.556 267.378 L 159.289 277.333 L 157.867 290.133 L 162.133 294.4 L 176.356 294.4 L 182.044 290.133 L 183.467 278.756 L 174.933 280.178 L 169.244 288.711 L 166.4 288.711 L 169.244 278.756 L 176.356 271.644 L 186.311 270.222 L 192 275.911 L 192 285.867 L 186.311 297.244 L 177.778 302.933 L 164.978 304.356 L 155.022 300.089 L 150.756 295.822 L 149.333 291.556 L 149.333 280.178 L 155.022 263.111 L 164.978 250.311 L 177.778 244.622 L 194.844 243.2 L 196.267 220.444 L 201.956 207.644 L 209.067 201.956 L 211.911 200.533 L 226.133 201.956 L 233.244 206.222 L 238.933 217.6 L 237.511 230.4 L 230.4 237.511 L 221.867 237.511 L 216.178 231.822 L 217.6 223.289 L 223.289 220.444 L 224.711 224.711 L 223.289 228.978 L 227.556 230.4 L 231.822 226.133 L 231.822 217.6 L 224.711 210.489 L 213.333 209.067 L 209.067 213.333 L 206.222 220.444 L 204.8 238.933 L 207.644 248.889 L 224.711 251.733 L 241.778 244.622 L 257.422 234.667 L 268.8 226.133 L 281.6 221.867 L 304.356 221.867 L 312.889 226.133 L 320 233.244 L 321.422 244.622 L 317.156 254.578 L 308.622 260.267 L 304.356 261.689 L 287.289 261.689 L 280.178 257.422 L 277.333 253.156 L 278.756 243.2 L 285.867 237.511 L 292.978 238.933 L 285.867 244.622 L 284.444 251.733 L 290.133 254.578 L 300.089 254.578 L 310.044 250.311 L 311.467 247.467 L 311.467 234.667 L 307.2 231.822 L 294.4 230.4 L 277.333 233.244 L 268.8 238.933 L 256 250.311 L 246.044 261.689 L 241.778 265.956 L 227.556 270.222 L 223.289 275.911 L 219.022 298.667 L 210.489 314.311 L 210.489 324.267 L 223.289 328.533 L 230.4 337.067 L 253.156 356.978 L 273.067 362.667 L 283.022 362.667 L 288.711 359.822 L 298.667 359.822 L 307.2 366.933 L 312.889 375.467 L 317.156 382.578 L 328.533 389.689 L 334.222 388.267 L 338.489 378.311 L 345.6 379.733 L 347.022 378.311 L 347.022 371.2 L 342.756 364.089 L 328.533 352.711 L 322.844 344.178 L 318.578 339.911 L 318.578 337.067 L 311.467 334.222 L 301.511 320 L 291.556 318.578 L 270.222 320 L 267.378 325.689 L 267.378 335.644 L 274.489 342.756 L 295.822 342.756 L 295.822 338.489 L 281.6 338.489 L 281.6 334.222 L 290.133 332.8 L 302.933 335.644 L 304.356 337.067 L 304.356 344.178 L 298.667 349.867 L 284.444 352.711 L 270.222 351.289 L 260.267 345.6 L 254.578 334.222 L 254.578 324.267 L 263.111 311.467 L 268.8 310.044 L 260.267 295.822 L 254.578 281.6 L 256 267.378 L 261.689 261.689 L 275.911 261.689 L 284.444 268.8 L 287.289 274.489 L 287.289 284.444 L 283.022 288.711 L 273.067 285.867 L 271.644 281.6 L 280.178 283.022 L 278.756 273.067 L 275.911 271.644 L 267.378 271.644 L 265.956 273.067 L 267.378 285.867 L 274.489 298.667 L 284.444 304.356 L 302.933 304.356 L 314.311 300.089 L 321.422 294.4 L 338.489 285.867 L 347.022 283.022 L 347.022 270.222 L 342.756 265.956 L 334.222 263.111 L 321.422 264.533 L 317.156 271.644 L 318.578 278.756 L 327.111 278.756 L 328.533 271.644 L 332.8 273.067 L 334.222 280.178 L 328.533 285.867 L 317.156 285.867 L 311.467 278.756 L 310.044 268.8 L 312.889 261.689 L 320 257.422 L 334.222 256 L 347.022 258.844 L 354.133 264.533 L 355.556 267.378 L 355.556 284.444 L 351.289 291.556 L 328.533 302.933 L 324.267 308.622 L 324.267 318.578 L 332.8 332.8 L 358.4 351.289 L 362.667 347.022 L 368.356 339.911 L 369.778 335.644 L 369.778 322.844 L 364.089 318.578 L 355.556 318.578 L 355.556 328.533 L 359.822 328.533 L 362.667 324.267 L 365.511 324.267 L 364.089 334.222 L 361.244 337.067 L 351.289 335.644 L 347.022 331.378 L 345.6 321.422 L 349.867 314.311 L 355.556 311.467 L 368.356 311.467 L 376.889 317.156 L 379.733 322.844 L 379.733 335.644 L 374.044 349.867 L 375.467 359.822 L 379.733 365.511 L 374.044 375.467 L 365.511 382.578 L 361.244 391.111 L 359.822 405.333 L 361.244 418.133 L 369.778 429.511 L 378.311 430.933 L 386.844 443.733 L 395.378 446.578 L 408.178 445.156 L 423.822 445.156 L 433.778 453.689 L 440.889 455.111 L 439.467 442.311 L 433.778 428.089 L 419.556 416.711 L 401.067 409.6 L 393.956 411.022 L 391.111 415.289 L 391.111 426.667 L 396.8 429.511 L 403.911 433.778 L 412.444 433.778 L 412.444 426.667 L 405.333 420.978 L 405.333 418.133 L 413.867 418.133 L 419.556 423.822 L 420.978 433.778 L 415.289 440.889 L 403.911 440.889 L 391.111 433.778 L 384 425.244 L 384 413.867 L 389.689 405.333 L 392.533 405.333 L 386.844 392.533 L 388.267 381.156 L 395.378 375.467 L 405.333 375.467 L 413.867 379.733 L 419.556 385.422 L 419.556 395.378 L 413.867 399.644 L 402.489 398.222 L 399.644 393.956 L 399.644 388.267 L 405.333 391.111 L 412.444 392.533 L 411.022 386.844 L 405.333 382.578 L 396.8 382.578 L 395.378 384 L 396.8 396.8 L 398.222 401.067 L 413.867 405.333 L 433.778 412.444 L 438.044 413.867 L 433.778 396.8 L 422.4 374.044 L 418.133 369.778 L 418.133 366.933 L 413.867 365.511 L 406.756 351.289 L 402.489 339.911 L 396.8 332.8 L 389.689 327.111 L 386.844 322.844 L 388.267 311.467 L 389.689 302.933 L 384 292.978 L 381.156 274.489 L 375.467 261.689 L 358.4 244.622 L 344.178 236.089 L 337.067 228.978 L 332.8 223.289 L 317.156 217.6 L 314.311 214.756 L 311.467 201.956 L 300.089 193.422 L 280.178 183.467 L 268.8 180.622 L 253.156 180.622 L 244.622 184.889 L 243.2 194.844 L 246.044 201.956 L 250.311 206.222 L 261.689 207.644 L 267.378 206.222 L 267.378 199.111 L 260.267 197.689 L 260.267 194.844 L 268.8 194.844 L 274.489 199.111 L 274.489 207.644 L 265.956 213.333 L 250.311 213.333 L 237.511 204.8 L 234.667 197.689 L 236.089 184.889 L 241.778 177.778 L 247.467 174.933 L 268.8 173.511 L 265.956 169.244 L 265.956 156.444 L 270.222 147.911 L 277.333 142.222 L 280.178 140.8 L 295.822 140.8 L 307.2 146.489 L 310.044 152.178 L 310.044 162.133 L 307.2 166.4 L 298.667 167.822 L 291.556 163.556 L 290.133 156.444 L 295.822 159.289 L 301.511 160.711 L 302.933 153.6 L 298.667 149.333 L 277.333 149.333 L 274.489 157.867 L 275.911 167.822 L 283.022 174.933 L 294.4 180.622 L 308.622 183.467 L 322.844 184.889 L 322.844 172.089 L 318.578 177.778 L 311.467 176.356 L 312.889 173.511 L 315.733 173.511 L 318.578 166.4 L 324.267 162.133 L 331.378 163.556 L 332.8 201.956 L 344.178 210.489 L 356.978 224.711 L 379.733 236.089 L 375.467 224.711 L 361.244 220.444 L 351.289 211.911 L 347.022 204.8 L 347.022 196.267 L 352.711 190.578 L 364.089 190.578 L 366.933 194.844 L 365.511 201.956 L 362.667 201.956 L 359.822 196.267 L 355.556 194.844 L 355.556 203.378 L 358.4 209.067 L 366.933 213.333 L 378.311 211.911 L 381.156 204.8 L 381.156 190.578 L 378.311 173.511 L 369.778 160.711 L 364.089 156.444 L 351.289 156.444 L 347.022 162.133 L 347.022 173.511 L 354.133 177.778 L 366.933 177.778 L 368.356 173.511 L 365.511 172.089 L 365.511 169.244 L 372.622 170.667 L 374.044 172.089 L 372.622 182.044 L 365.511 186.311 L 354.133 186.311 L 342.756 180.622 L 338.489 174.933 L 338.489 160.711 L 342.756 153.6 L 349.867 147.911 L 362.667 146.489 L 371.2 150.756 L 381.156 162.133 L 389.689 176.356 L 406.756 176.356 L 416.711 180.622 L 422.4 187.733 L 423.822 190.578 L 423.822 204.8 L 416.711 211.911 L 408.178 213.333 L 401.067 209.067 L 399.644 206.222 L 399.644 194.844 L 402.489 192 L 411.022 192 L 412.444 196.267 L 406.756 197.689 L 406.756 203.378 L 415.289 203.378 L 416.711 201.956 L 415.289 189.156 L 409.6 184.889 L 393.956 184.889 L 393.956 199.111 L 395.378 206.222 L 396.8 247.467 L 401.067 267.378 L 403.911 283.022 L 405.333 290.133 L 418.133 301.511 L 420.978 305.778 L 422.4 327.111 L 430.933 342.756 L 443.733 359.822 L 452.267 369.778 L 463.644 378.311 L 466.489 379.733 L 466.489 365.511 L 460.8 351.289 L 443.733 325.689 L 429.511 311.467 L 418.133 291.556 L 413.867 275.911 L 413.867 265.956 L 419.556 250.311 L 426.667 243.2 L 435.2 238.933 L 446.578 238.933 L 456.533 243.2 L 462.222 250.311 L 462.222 260.267 L 457.956 264.533 L 449.422 265.956 L 439.467 261.689 L 436.622 257.422 L 436.622 253.156 L 445.156 257.422 L 453.689 257.422 L 452.267 250.311 L 446.578 247.467 L 435.2 247.467 L 428.089 254.578 L 423.822 264.533 L 423.822 278.756 L 430.933 297.244 L 440.889 311.467 L 446.578 315.733 L 453.689 314.311 L 462.222 310.044 L 467.911 302.933 L 467.911 288.711 L 460.8 281.6 L 449.422 283.022 L 446.578 287.289 L 448 294.4 L 455.111 295.822 L 463.644 292.978 L 462.222 300.089 L 453.689 304.356 L 445.156 302.933 L 438.044 297.244 L 436.622 285.867 L 440.889 277.333 L 450.844 271.644 L 465.067 271.644 L 473.6 275.911 L 477.867 280.178 L 480.711 288.711 L 480.711 302.933 L 473.6 315.733 L 470.756 320 L 470.756 342.756 L 473.6 352.711 L 483.556 362.667 L 490.667 355.556 L 494.933 348.444 L 494.933 339.911 L 487.822 335.644 L 482.133 335.644 L 483.556 345.6 L 487.822 345.6 L 492.089 341.333 L 492.089 349.867 L 489.244 352.711 L 480.711 352.711 L 476.444 347.022 L 475.022 337.067 L 479.289 329.956 L 489.244 328.533 L 497.778 332.8 L 503.467 339.911 L 503.467 349.867 L 499.2 358.4 L 490.667 371.2 L 486.4 392.533 L 486.4 409.6 L 490.667 416.711 L 492.089 430.933 L 490.667 436.622 L 496.356 455.111 L 506.311 477.867 L 513.422 484.978 L 524.8 493.511 L 526.222 496.356 L 537.6 496.356 L 547.556 502.044 L 563.2 503.467 L 560.356 490.667 L 558.933 489.244 L 558.933 477.867 L 553.244 462.222 L 548.978 453.689 L 548.978 450.844 L 540.444 452.267 L 536.178 445.156 L 531.911 435.2 L 529.067 422.4 L 523.378 408.178 L 507.733 396.8 L 499.2 384 L 499.2 372.622 L 506.311 361.244 L 510.578 361.244 L 507.733 374.044 L 507.733 382.578 L 513.422 388.267 L 517.689 388.267 L 520.533 378.311 L 519.111 364.089 L 516.267 347.022 L 507.733 331.378 L 494.933 315.733 L 489.244 302.933 L 486.4 290.133 L 482.133 277.333 L 480.711 256 L 473.6 241.778 L 470.756 227.556 L 463.644 214.756 L 459.378 207.644 L 456.533 206.222 L 456.533 203.378 L 450.844 200.533 L 430.933 179.2 L 423.822 167.822 L 379.733 140.8 L 361.244 128 L 349.867 122.311 L 332.8 122.311 L 325.689 126.578 L 327.111 136.533 L 332.8 140.8 L 341.333 140.8 L 341.333 136.533 L 335.644 133.689 L 335.644 130.844 L 345.6 132.267 L 348.444 135.111 L 347.022 143.644 L 342.756 147.911 L 331.378 147.911 L 322.844 142.222 L 318.578 135.111 L 317.156 125.156 L 321.422 118.044 L 328.533 113.778 L 335.644 112.356 L 355.556 112.356 L 365.511 113.778 L 368.356 110.933 L 372.622 93.867 L 378.311 82.489 L 385.422 76.8 L 396.8 75.378 L 403.911 79.644 L 406.756 83.911 L 406.756 95.289 L 403.911 99.556 L 395.378 99.556 L 392.533 95.289 L 393.956 88.178 L 396.8 88.178 L 396.8 93.867 L 401.067 93.867 L 398.222 83.911 L 388.267 83.911 L 382.578 91.022 L 378.311 105.244 L 379.733 119.467 L 386.844 130.844 L 398.222 137.956 L 409.6 140.8 L 423.822 140.8 L 428.089 139.378 L 430.933 122.311 L 429.511 108.089 L 423.822 102.4 L 415.289 102.4 L 411.022 109.511 L 411.022 119.467 L 419.556 119.467 L 420.978 116.622 L 422.4 119.467 L 416.711 126.578 L 408.178 126.578 L 403.911 123.733 L 402.489 119.467 L 402.489 109.511 L 408.178 98.133 L 415.289 92.444 L 423.822 91.022 L 435.2 72.533 L 445.156 64 L 452.267 61.156 L 462.222 61.156 L 470.756 66.844 L 476.444 73.956 L 477.867 78.222 L 477.867 95.289 L 472.178 106.667 L 466.489 110.933 L 456.533 110.933 L 449.422 103.822 L 446.578 93.867 L 449.422 82.489 L 453.689 79.644 L 460.8 81.067 L 456.533 85.333 L 453.689 85.333 L 453.689 95.289 L 456.533 102.4 L 465.067 103.822 L 467.911 103.822 L 470.756 95.289 L 470.756 79.644 L 465.067 71.111 L 453.689 69.689 L 445.156 73.956 L 438.044 82.489 L 435.2 88.178 L 435.2 95.289 L 440.889 102.4 L 443.733 110.933 L 445.156 155.022 L 448 159.289 L 450.844 172.089 L 457.956 183.467 L 472.178 192 L 479.289 194.844 L 486.4 193.422 L 494.933 182.044 L 500.622 167.822 L 499.2 156.444 L 494.933 150.756 L 494.933 147.911 L 487.822 145.067 L 483.556 142.222 L 469.333 140.8 L 469.333 157.867 L 473.6 166.4 L 476.444 169.244 L 483.556 167.822 L 483.556 159.289 L 476.444 156.444 L 482.133 153.6 L 489.244 157.867 L 492.089 167.822 L 487.822 174.933 L 483.556 177.778 L 472.178 176.356 L 465.067 170.667 L 462.222 164.978 L 460.8 139.378 L 452.267 136.533 L 452.267 133.689 L 455.111 132.267 L 463.644 132.267 L 467.911 133.689 L 480.711 133.689 L 494.933 140.8 L 507.733 153.6 L 509.156 159.289 L 509.156 169.244 L 503.467 183.467 L 494.933 200.533 L 494.933 210.489 L 506.311 237.511 L 514.844 253.156 L 527.644 263.111 L 534.756 260.267 L 547.556 243.2 L 546.133 224.711 L 543.289 211.911 L 531.911 201.956 L 526.222 196.267 L 514.844 196.267 L 512 201.956 L 510.578 211.911 L 517.689 217.6 L 524.8 217.6 L 526.222 213.333 L 520.533 207.644 L 520.533 204.8 L 529.067 206.222 L 531.911 210.489 L 531.911 220.444 L 526.222 224.711 L 512 224.711 L 503.467 217.6 L 502.044 213.333 L 502.044 201.956 L 506.311 193.422 L 516.267 184.889 L 523.378 176.356 L 534.756 180.622 L 541.867 192 L 537.6 179.2 L 524.8 149.333 L 513.422 135.111 L 499.2 113.778 L 492.089 99.556 L 490.667 95.289 L 490.667 79.644 L 496.356 61.156 L 504.889 49.778 L 514.844 45.511 L 524.8 45.511 L 531.911 49.778 L 536.178 55.467 L 537.6 61.156 L 537.6 71.111 L 531.911 83.911 L 527.644 88.178 L 519.111 88.178 L 514.844 83.911 L 514.844 73.956 L 519.111 72.533 L 520.533 82.489 L 526.222 81.067 L 529.067 75.378 L 530.489 64 L 526.222 55.467 L 521.956 52.622 L 513.422 54.044 L 506.311 61.156 L 502.044 75.378 L 502.044 88.178 L 507.733 100.978 L 514.844 109.511 L 531.911 119.467 L 534.756 119.467 L 544.711 96.711 L 560.356 68.267 L 561.778 64 L 561.778 49.778 L 557.511 45.511 L 548.978 45.511 L 546.133 46.933 L 546.133 55.467 L 553.244 59.733 L 553.244 62.578 L 544.711 62.578 L 539.022 56.889 L 539.022 44.089 L 543.289 39.822 L 547.556 38.4 L 560.356 38.4 L 566.044 41.244 L 570.311 52.622 L 567.467 71.111 L 548.978 112.356 L 546.133 119.467 L 546.133 137.956 L 548.978 143.644 L 550.4 159.289 L 556.089 169.244 L 567.467 182.044 L 571.733 193.422 L 573.156 199.111 L 574.578 228.978 L 581.689 247.467 L 583.111 257.422 L 576 278.756 L 567.467 288.711 L 558.933 294.4 L 556.089 301.511 L 556.089 338.489 L 560.356 351.289 L 570.311 371.2 L 573.156 384 L 581.689 399.644 L 584.533 402.489 L 590.222 403.911 L 594.489 409.6 L 598.756 399.644 L 598.756 388.267 L 594.489 381.156 L 590.222 379.733 L 590.222 389.689 L 593.067 395.378 L 587.378 393.956 L 583.111 386.844 L 584.533 376.889 L 590.222 371.2 L 598.756 372.622 L 604.444 378.311 L 607.289 385.422 L 608.711 395.378 L 605.867 413.867 L 604.444 418.133 L 604.444 428.089 L 608.711 435.2 L 614.4 443.733 L 620.089 459.378 L 625.778 469.333 L 625.778 476.444 L 624.356 483.556 L 630.044 494.933 L 635.733 500.622 L 642.844 499.2 L 648.533 490.667 L 648.533 479.289 L 641.422 455.111 L 637.156 448 L 637.156 416.711 L 631.467 395.378 L 625.778 381.156 L 610.133 371.2 L 600.178 362.667 L 585.956 342.756 L 578.844 324.267 L 577.422 318.578 L 577.422 295.822 L 581.689 287.289 L 588.8 280.178 L 605.867 280.178 L 612.978 287.289 L 617.244 294.4 L 617.244 320 L 611.556 324.267 L 601.6 324.267 L 594.489 318.578 L 593.067 315.733 L 593.067 307.2 L 595.911 301.511 L 604.444 300.089 L 604.444 302.933 L 601.6 302.933 L 601.6 314.311 L 608.711 317.156 L 608.711 298.667 L 605.867 292.978 L 595.911 291.556 L 591.644 295.822 L 590.222 301.511 L 590.222 312.889 L 595.911 332.8 L 605.867 344.178 L 618.667 351.289 L 620.089 335.644 L 620.089 295.822 L 617.244 278.756 L 608.711 261.689 L 598.756 247.467 L 591.644 233.244 L 590.222 193.422 L 585.956 179.2 L 576 167.822 L 568.889 160.711 L 563.2 149.333 L 561.778 142.222 L 560.356 116.622 L 563.2 102.4 L 570.311 89.6 L 578.844 85.333 L 588.8 85.333 L 595.911 91.022 L 597.333 93.867 L 597.333 108.089 L 590.222 115.2 L 584.533 116.622 L 578.844 113.778 L 578.844 103.822 L 583.111 98.133 L 585.956 98.133 L 584.533 109.511 L 590.222 106.667 L 590.222 95.289 L 580.267 93.867 L 573.156 99.556 L 571.733 110.933 L 580.267 126.578 L 583.111 129.422 L 590.222 128 L 600.178 119.467 L 611.556 109.511 L 617.244 96.711 L 624.356 85.333 L 634.311 69.689 L 635.733 65.422 L 635.733 45.511 L 632.889 39.822 L 630.044 38.4 L 617.244 38.4 L 607.289 42.667 L 595.911 49.778 L 591.644 56.889 L 591.644 65.422 L 594.489 68.267 L 607.289 68.267 L 615.822 62.578 L 618.667 56.889 L 621.511 56.889 L 620.089 65.422 L 610.133 73.956 L 605.867 75.378 L 594.489 75.378 L 585.956 68.267 L 584.533 65.422 L 584.533 54.044 L 593.067 42.667 L 605.867 34.133 L 621.511 29.867 Z  M 1075.2 795.022 L 1092.267 795.022 L 1102.222 800.711 L 1106.489 807.822 L 1106.489 822.044 L 1100.8 833.422 L 1093.689 840.533 L 1088 844.8 L 1080.889 847.644 L 1068.089 847.644 L 1060.978 844.8 L 1055.289 839.111 L 1053.867 827.733 L 1056.711 820.622 L 1066.667 812.089 L 1078.044 810.667 L 1085.156 814.933 L 1085.156 826.311 L 1078.044 832 L 1068.089 832 L 1066.667 829.156 L 1075.2 826.311 L 1078.044 820.622 L 1078.044 817.778 L 1068.089 820.622 L 1062.4 826.311 L 1062.4 834.844 L 1066.667 837.689 L 1079.467 837.689 L 1086.578 833.422 L 1089.422 833.422 L 1096.533 819.2 L 1096.533 806.4 L 1092.267 804.978 L 1072.356 804.978 L 1058.133 812.089 L 1048.178 823.467 L 1048.178 837.689 L 1053.867 847.644 L 1068.089 856.178 L 1083.733 864.711 L 1090.844 870.4 L 1100.8 883.2 L 1113.6 898.844 L 1123.556 918.756 L 1126.4 928.711 L 1127.822 944.356 L 1127.822 962.844 L 1124.978 978.489 L 1112.178 1002.667 L 1096.533 1022.578 L 1082.311 1033.956 L 1070.933 1041.067 L 1068.089 1041.067 L 1069.511 1009.778 L 1080.889 998.4 L 1093.689 978.489 L 1099.378 968.533 L 1100.8 961.422 L 1100.8 944.356 L 1096.533 925.867 L 1090.844 914.489 L 1078.044 900.267 L 1059.556 888.889 L 1046.756 884.622 L 1026.844 881.778 L 1004.089 881.778 L 988.444 870.4 L 981.333 867.556 L 981.333 864.711 L 989.867 860.444 L 1002.667 846.222 L 1014.044 836.267 L 1033.956 820.622 L 1052.444 804.978 L 1066.667 797.867 L 1075.2 795.022 Z  M 180.622 799.289 L 192 799.289 L 210.489 806.4 L 224.711 816.356 L 246.044 837.689 L 270.222 860.444 L 281.6 871.822 L 280.178 877.511 L 265.956 890.311 L 258.844 888.889 L 250.311 884.622 L 226.133 884.622 L 213.333 890.311 L 197.689 901.689 L 182.044 923.022 L 173.511 941.511 L 172.089 954.311 L 172.089 972.8 L 177.778 991.289 L 189.156 1006.933 L 196.267 1014.044 L 194.844 1049.6 L 187.733 1046.756 L 167.822 1029.689 L 167.822 1026.844 L 164.978 1026.844 L 156.444 1015.467 L 147.911 1001.244 L 142.222 984.178 L 142.222 945.778 L 147.911 923.022 L 157.867 905.956 L 172.089 887.467 L 189.156 868.978 L 206.222 856.178 L 219.022 849.067 L 220.444 840.533 L 219.022 827.733 L 213.333 817.778 L 193.422 809.244 L 179.2 809.244 L 174.933 814.933 L 174.933 826.311 L 179.2 833.422 L 186.311 839.111 L 192 841.956 L 203.378 840.533 L 203.378 830.578 L 200.533 824.889 L 194.844 822.044 L 186.311 820.622 L 189.156 829.156 L 197.689 830.578 L 196.267 834.844 L 186.311 834.844 L 180.622 829.156 L 180.622 817.778 L 186.311 813.511 L 200.533 814.933 L 207.644 822.044 L 211.911 829.156 L 211.911 840.533 L 203.378 850.489 L 190.578 850.489 L 179.2 844.8 L 169.244 833.422 L 164.978 820.622 L 166.4 812.089 L 172.089 803.556 L 180.622 799.289 Z  M 550.4 1019.733 L 557.511 1022.578 L 570.311 1029.689 L 593.067 1038.222 L 620.089 1045.333 L 642.844 1052.444 L 662.756 1062.4 L 686.933 1079.467 L 701.156 1089.422 L 712.533 1095.111 L 726.756 1099.378 L 745.244 1099.378 L 753.778 1095.111 L 758.044 1089.422 L 758.044 1079.467 L 753.778 1069.511 L 742.4 1060.978 L 732.444 1058.133 L 719.644 1059.556 L 718.222 1060.978 L 718.222 1073.778 L 725.333 1082.311 L 732.444 1085.156 L 742.4 1085.156 L 742.4 1075.2 L 740.978 1070.933 L 726.756 1068.089 L 728.178 1063.822 L 740.978 1065.244 L 749.511 1072.356 L 750.933 1075.2 L 750.933 1086.578 L 746.667 1092.267 L 742.4 1093.689 L 731.022 1093.689 L 719.644 1089.422 L 712.533 1080.889 L 709.689 1076.622 L 709.689 1058.133 L 716.8 1051.022 L 721.067 1049.6 L 733.867 1049.6 L 748.089 1053.867 L 760.889 1062.4 L 766.578 1069.511 L 768 1076.622 L 768 1092.267 L 763.733 1102.222 L 755.2 1109.333 L 746.667 1110.756 L 729.6 1110.756 L 721.067 1109.333 L 705.422 1109.333 L 701.156 1115.022 L 698.311 1133.511 L 692.622 1157.689 L 686.933 1170.489 L 678.4 1183.289 L 667.022 1190.4 L 658.489 1193.244 L 631.467 1193.244 L 617.244 1188.978 L 605.867 1180.444 L 598.756 1169.067 L 595.911 1161.956 L 595.911 1126.4 L 601.6 1110.756 L 614.4 1102.222 L 640 1102.222 L 654.222 1109.333 L 662.756 1119.289 L 665.6 1129.244 L 667.022 1150.578 L 662.756 1163.378 L 655.644 1170.489 L 649.956 1171.911 L 640 1171.911 L 628.622 1166.222 L 621.511 1157.689 L 620.089 1153.422 L 620.089 1143.467 L 625.778 1134.933 L 628.622 1133.511 L 637.156 1133.511 L 642.844 1136.356 L 644.267 1143.467 L 632.889 1142.044 L 630.044 1143.467 L 630.044 1154.844 L 635.733 1160.533 L 647.111 1161.956 L 654.222 1159.111 L 658.489 1149.156 L 658.489 1137.778 L 655.644 1123.556 L 654.222 1119.289 L 648.533 1116.444 L 635.733 1110.756 L 620.089 1110.756 L 611.556 1113.6 L 605.867 1123.556 L 604.444 1130.667 L 604.444 1150.578 L 607.289 1166.222 L 615.822 1177.6 L 628.622 1181.867 L 647.111 1183.289 L 659.911 1179.022 L 671.289 1170.489 L 682.667 1149.156 L 684.089 1132.089 L 681.244 1120.711 L 672.711 1103.644 L 659.911 1088 L 645.689 1078.044 L 628.622 1068.089 L 593.067 1059.556 L 537.6 1035.378 L 537.6 1032.533 L 540.444 1032.533 L 543.289 1026.844 L 550.4 1019.733 Z  M 524.8 1048.178 L 543.289 1048.178 L 551.822 1053.867 L 554.667 1059.556 L 554.667 1076.622 L 551.822 1083.733 L 539.022 1093.689 L 526.222 1093.689 L 519.111 1088 L 519.111 1073.778 L 526.222 1065.244 L 534.756 1062.4 L 541.867 1069.511 L 541.867 1078.044 L 536.178 1080.889 L 534.756 1070.933 L 527.644 1072.356 L 526.222 1073.778 L 526.222 1086.578 L 539.022 1086.578 L 544.711 1083.733 L 547.556 1066.667 L 544.711 1059.556 L 536.178 1055.289 L 526.222 1056.711 L 514.844 1062.4 L 510.578 1069.511 L 509.156 1086.578 L 513.422 1096.533 L 519.111 1099.378 L 536.178 1100.8 L 558.933 1089.422 L 594.489 1072.356 L 601.6 1066.667 L 614.4 1068.089 L 627.2 1072.356 L 627.2 1075.2 L 605.867 1086.578 L 595.911 1096.533 L 587.378 1110.756 L 581.689 1126.4 L 578.844 1143.467 L 578.844 1164.8 L 584.533 1179.022 L 595.911 1194.667 L 601.6 1201.778 L 615.822 1208.889 L 657.067 1208.889 L 671.289 1204.622 L 694.044 1193.244 L 708.267 1184.711 L 723.911 1179.022 L 735.289 1180.444 L 740.978 1187.556 L 742.4 1193.244 L 742.4 1206.044 L 738.133 1216 L 733.867 1223.111 L 721.067 1231.644 L 718.222 1233.067 L 706.844 1233.067 L 699.733 1227.378 L 699.733 1211.733 L 705.422 1203.2 L 713.956 1197.511 L 722.489 1197.511 L 728.178 1203.2 L 728.178 1211.733 L 722.489 1220.267 L 719.644 1220.267 L 721.067 1203.2 L 711.111 1206.044 L 706.844 1213.156 L 706.844 1225.956 L 718.222 1225.956 L 728.178 1218.844 L 733.867 1208.889 L 733.867 1191.822 L 732.444 1188.978 L 718.222 1188.978 L 685.511 1207.467 L 665.6 1216 L 652.8 1218.844 L 617.244 1218.844 L 603.022 1213.156 L 588.8 1200.356 L 573.156 1177.6 L 566.044 1157.689 L 561.778 1124.978 L 560.356 1120.711 L 546.133 1115.022 L 521.956 1110.756 L 507.733 1102.222 L 502.044 1095.111 L 500.622 1092.267 L 500.622 1072.356 L 506.311 1060.978 L 517.689 1051.022 L 524.8 1048.178 Z  M 583.111 931.556 L 614.4 931.556 L 632.889 938.667 L 641.422 937.244 L 652.8 932.978 L 675.556 931.556 L 695.467 935.822 L 706.844 942.933 L 715.378 952.889 L 721.067 964.267 L 722.489 969.956 L 722.489 991.289 L 718.222 1004.089 L 708.267 1015.467 L 696.889 1022.578 L 684.089 1026.844 L 672.711 1026.844 L 661.333 1024 L 651.378 1018.311 L 642.844 1005.511 L 641.422 1001.244 L 641.422 982.756 L 645.689 969.956 L 652.8 961.422 L 664.178 954.311 L 674.133 952.889 L 686.933 955.733 L 694.044 960 L 698.311 967.111 L 699.733 972.8 L 699.733 982.756 L 695.467 982.756 L 691.2 978.489 L 686.933 967.111 L 679.822 962.844 L 669.867 962.844 L 661.333 967.111 L 654.222 975.644 L 652.8 979.911 L 652.8 995.556 L 657.067 1006.933 L 665.6 1014.044 L 688.356 1014.044 L 702.578 1006.933 L 708.267 999.822 L 711.111 982.756 L 708.267 968.533 L 702.578 957.156 L 701.156 952.889 L 695.467 950.044 L 681.244 944.356 L 657.067 944.356 L 638.578 951.467 L 628.622 950.044 L 614.4 944.356 L 604.444 942.933 L 591.644 942.933 L 580.267 945.778 L 568.889 952.889 L 563.2 960 L 558.933 969.956 L 557.511 987.022 L 560.356 999.822 L 567.467 1006.933 L 578.844 1012.622 L 585.956 1014.044 L 598.756 1014.044 L 605.867 1011.2 L 612.978 1004.089 L 615.822 994.133 L 615.822 979.911 L 610.133 968.533 L 601.6 962.844 L 593.067 961.422 L 584.533 964.267 L 580.267 967.111 L 577.422 977.067 L 568.889 982.756 L 568.889 969.956 L 573.156 961.422 L 581.689 954.311 L 584.533 952.889 L 603.022 952.889 L 612.978 958.578 L 622.933 969.956 L 625.778 975.644 L 627.2 984.178 L 627.2 999.822 L 621.511 1011.2 L 614.4 1019.733 L 604.444 1024 L 597.333 1025.422 L 583.111 1025.422 L 570.311 1021.156 L 556.089 1011.2 L 550.4 1004.089 L 546.133 991.289 L 546.133 967.111 L 556.089 947.2 L 567.467 937.244 L 583.111 931.556 Z  M 209.067 979.911 L 221.867 982.756 L 237.511 987.022 L 233.244 1021.156 L 233.244 1052.444 L 237.511 1069.511 L 250.311 1089.422 L 260.267 1099.378 L 273.067 1107.911 L 280.178 1124.978 L 292.978 1144.889 L 292.978 1147.733 L 283.022 1146.311 L 258.844 1136.356 L 237.511 1123.556 L 227.556 1113.6 L 214.756 1097.956 L 207.644 1086.578 L 203.378 1076.622 L 199.111 1052.444 L 199.111 1032.533 L 200.533 1016.889 L 207.644 982.756 L 209.067 979.911 Z  M 274.489 1079.467 L 301.511 1080.889 L 304.356 1089.422 L 310.044 1110.756 L 320 1133.511 L 331.378 1149.156 L 341.333 1159.111 L 369.778 1177.6 L 392.533 1188.978 L 413.867 1194.667 L 426.667 1196.089 L 440.889 1207.467 L 448 1214.578 L 438.044 1217.422 L 411.022 1217.422 L 388.267 1211.733 L 365.511 1203.2 L 347.022 1191.822 L 328.533 1179.022 L 317.156 1170.489 L 307.2 1159.111 L 292.978 1139.2 L 283.022 1122.133 L 275.911 1100.8 L 274.489 1090.844 L 274.489 1079.467 Z  M 965.689 1070.933 L 984.178 1070.933 L 994.133 1072.356 L 994.133 1100.8 L 985.6 1123.556 L 974.222 1143.467 L 961.422 1156.267 L 938.667 1173.333 L 913.067 1188.978 L 888.889 1197.511 L 871.822 1201.778 L 851.911 1204.622 L 827.733 1204.622 L 834.844 1198.933 L 849.067 1184.711 L 859.022 1180.444 L 888.889 1173.333 L 911.644 1161.956 L 927.289 1152 L 941.511 1139.2 L 951.467 1126.4 L 958.578 1109.333 L 964.267 1080.889 L 965.689 1070.933 Z  M 854.756 1129.244 L 864.711 1130.667 L 880.356 1136.356 L 877.511 1143.467 L 857.6 1170.489 L 846.222 1183.289 L 834.844 1193.244 L 813.511 1210.311 L 799.289 1218.844 L 760.889 1235.911 L 709.689 1251.556 L 692.622 1255.822 L 662.756 1255.822 L 649.956 1251.556 L 644.267 1245.867 L 642.844 1234.489 L 647.111 1225.956 L 655.644 1220.267 L 667.022 1220.267 L 674.133 1224.533 L 676.978 1230.222 L 675.556 1238.756 L 668.444 1243.022 L 659.911 1240.178 L 659.911 1238.756 L 669.867 1235.911 L 668.444 1228.8 L 667.022 1227.378 L 655.644 1227.378 L 649.956 1233.067 L 651.378 1243.022 L 657.067 1245.867 L 668.444 1247.289 L 686.933 1247.289 L 722.489 1234.489 L 746.667 1225.956 L 775.111 1210.311 L 789.333 1200.356 L 802.133 1191.822 L 820.622 1174.756 L 834.844 1156.267 L 846.222 1140.622 L 854.756 1129.244 Z  M 412.444 1137.778 L 416.711 1137.778 L 426.667 1150.578 L 439.467 1163.378 L 439.467 1166.222 L 445.156 1169.067 L 457.956 1183.289 L 472.178 1197.511 L 494.933 1214.578 L 513.422 1225.956 L 534.756 1235.911 L 560.356 1244.444 L 573.156 1247.289 L 611.556 1247.289 L 618.667 1245.867 L 618.667 1230.222 L 605.867 1227.378 L 600.178 1230.222 L 600.178 1237.333 L 608.711 1240.178 L 605.867 1243.022 L 597.333 1243.022 L 593.067 1238.756 L 593.067 1228.8 L 600.178 1221.689 L 614.4 1221.689 L 624.356 1230.222 L 625.778 1233.067 L 625.778 1245.867 L 618.667 1252.978 L 611.556 1255.822 L 598.756 1257.244 L 576 1257.244 L 550.4 1252.978 L 526.222 1245.867 L 504.889 1237.333 L 480.711 1225.956 L 460.8 1214.578 L 443.733 1201.778 L 443.733 1198.933 L 436.622 1196.089 L 406.756 1170.489 L 396.8 1159.111 L 389.689 1149.156 L 389.689 1146.311 L 412.444 1137.778 Z  M 1049.6 967.111 L 1056.711 968.533 L 1065.244 1001.244 L 1065.244 1032.533 L 1059.556 1059.556 L 1052.444 1079.467 L 1042.489 1095.111 L 1031.111 1109.333 L 1019.733 1119.289 L 1001.244 1130.667 L 989.867 1134.933 L 984.178 1133.511 L 992.711 1116.444 L 998.4 1100.8 L 1012.622 1092.267 L 1022.578 1082.311 L 1032.533 1065.244 L 1038.222 1046.756 L 1038.222 1008.356 L 1032.533 987.022 L 1028.267 972.8 L 1049.6 967.111 Z  M 96.711 803.556 L 115.2 803.556 L 133.689 809.244 L 146.489 819.2 L 156.444 830.578 L 160.711 841.956 L 160.711 860.444 L 153.6 874.667 L 145.067 880.356 L 140.8 881.778 L 119.467 881.778 L 108.089 876.089 L 99.556 868.978 L 93.867 857.6 L 93.867 846.222 L 99.556 834.844 L 109.511 829.156 L 118.044 829.156 L 129.422 836.267 L 132.267 841.956 L 132.267 853.333 L 126.578 859.022 L 120.889 860.444 L 120.889 856.178 L 122.311 846.222 L 116.622 840.533 L 108.089 841.956 L 103.822 851.911 L 108.089 863.289 L 116.622 868.978 L 122.311 870.4 L 139.378 870.4 L 146.489 866.133 L 150.756 859.022 L 150.756 846.222 L 146.489 833.422 L 139.378 826.311 L 128 819.2 L 118.044 814.933 L 98.133 814.933 L 89.6 817.778 L 82.489 824.889 L 78.222 839.111 L 78.222 856.178 L 85.333 870.4 L 99.556 884.622 L 118.044 898.844 L 145.067 915.911 L 142.222 928.711 L 125.156 920.178 L 102.4 904.533 L 92.444 894.578 L 81.067 884.622 L 71.111 870.4 L 66.844 860.444 L 65.422 853.333 L 65.422 841.956 L 68.267 829.156 L 75.378 816.356 L 81.067 813.511 L 81.067 810.667 L 92.444 804.978 L 96.711 803.556 Z  M 443.733 1088 L 448 1089.422 L 456.533 1102.222 L 443.733 1115.022 L 429.511 1124.978 L 402.489 1137.778 L 385.422 1143.467 L 354.133 1150.578 L 338.489 1150.578 L 332.8 1144.889 L 322.844 1130.667 L 320 1124.978 L 321.422 1119.289 L 341.333 1119.289 L 376.889 1116.444 L 396.8 1110.756 L 413.867 1105.067 L 435.2 1093.689 L 443.733 1088 Z  M 236.089 1033.956 L 256 1038.222 L 270.222 1041.067 L 291.556 1043.911 L 347.022 1045.333 L 347.022 1068.089 L 332.8 1072.356 L 315.733 1075.2 L 280.178 1075.2 L 243.2 1069.511 L 238.933 1062.4 L 236.089 1048.178 L 236.089 1033.956 Z  M 1143.467 797.867 L 1163.378 797.867 L 1176.178 802.133 L 1186.133 809.244 L 1191.822 817.778 L 1194.667 824.889 L 1194.667 846.222 L 1188.978 864.711 L 1177.6 881.778 L 1164.8 894.578 L 1139.2 913.067 L 1130.667 918.756 L 1127.822 918.756 L 1124.978 908.8 L 1139.2 900.267 L 1157.689 886.044 L 1171.911 873.244 L 1177.6 864.711 L 1184.711 846.222 L 1184.711 826.311 L 1180.444 817.778 L 1173.333 812.089 L 1160.533 807.822 L 1143.467 807.822 L 1130.667 813.511 L 1123.556 827.733 L 1122.133 836.267 L 1122.133 851.911 L 1127.822 863.289 L 1136.356 867.556 L 1152 867.556 L 1159.111 860.444 L 1160.533 856.178 L 1160.533 839.111 L 1157.689 833.422 L 1149.156 832 L 1142.044 839.111 L 1139.2 846.222 L 1136.356 846.222 L 1134.933 837.689 L 1139.2 829.156 L 1147.733 823.467 L 1159.111 823.467 L 1166.222 829.156 L 1170.489 839.111 L 1170.489 856.178 L 1166.222 868.978 L 1156.267 877.511 L 1152 878.933 L 1134.933 878.933 L 1123.556 873.244 L 1116.444 864.711 L 1112.178 850.489 L 1112.178 833.422 L 1116.444 819.2 L 1124.978 807.822 L 1132.089 802.133 L 1143.467 797.867 Z  M 183.467 931.556 L 192 932.978 L 214.756 942.933 L 240.356 951.467 L 264.533 957.156 L 273.067 960 L 287.289 962.844 L 285.867 971.378 L 275.911 991.289 L 260.267 988.444 L 234.667 979.911 L 221.867 977.067 L 199.111 969.956 L 182.044 962.844 L 176.356 960 L 176.356 950.044 L 180.622 934.4 L 183.467 931.556 Z  M 832 1083.733 L 854.756 1095.111 L 881.778 1107.911 L 896 1112.178 L 908.8 1113.6 L 951.467 1115.022 L 948.622 1122.133 L 937.244 1136.356 L 932.978 1140.622 L 920.178 1140.622 L 896 1137.778 L 876.089 1130.667 L 859.022 1123.556 L 833.422 1109.333 L 822.044 1099.378 L 824.889 1093.689 L 832 1083.733 Z  M 1031.111 1032.533 L 1035.378 1032.533 L 1033.956 1051.022 L 1031.111 1058.133 L 1018.311 1062.4 L 1004.089 1065.244 L 941.511 1066.667 L 921.6 1065.244 L 918.756 1062.4 L 921.6 1042.489 L 955.733 1042.489 L 992.711 1041.067 L 1015.467 1038.222 L 1031.111 1032.533 Z  M 1088 925.867 L 1092.267 925.867 L 1096.533 938.667 L 1096.533 945.778 L 1079.467 954.311 L 1046.756 964.267 L 996.978 975.644 L 989.867 977.067 L 984.178 969.956 L 978.489 955.733 L 978.489 952.889 L 989.867 950.044 L 1012.622 947.2 L 1042.489 941.511 L 1083.733 928.711 L 1088 925.867 Z  M 829.156 962.844 L 844.8 964.267 L 853.333 969.956 L 859.022 977.067 L 860.444 979.911 L 860.444 994.133 L 856.178 1001.244 L 851.911 1004.089 L 839.111 1004.089 L 830.578 998.4 L 827.733 992.711 L 827.733 981.333 L 830.578 978.489 L 840.533 978.489 L 844.8 982.756 L 844.8 988.444 L 839.111 985.6 L 834.844 984.178 L 836.267 992.711 L 840.533 995.556 L 850.489 995.556 L 851.911 994.133 L 851.911 982.756 L 847.644 975.644 L 837.689 971.378 L 829.156 971.378 L 822.044 978.489 L 822.044 989.867 L 829.156 1001.244 L 839.111 1009.778 L 854.756 1019.733 L 874.667 1031.111 L 883.2 1035.378 L 884.622 1036.8 L 884.622 1048.178 L 883.2 1053.867 L 874.667 1051.022 L 851.911 1035.378 L 832 1019.733 L 819.2 1004.089 L 814.933 996.978 L 813.511 991.289 L 813.511 978.489 L 817.778 968.533 L 823.467 964.267 L 829.156 962.844 Z  M 432.356 962.844 L 442.311 964.267 L 450.844 969.956 L 455.111 975.644 L 455.111 992.711 L 446.578 1006.933 L 433.778 1021.156 L 416.711 1038.222 L 395.378 1053.867 L 388.267 1056.711 L 388.267 1043.911 L 391.111 1035.378 L 405.333 1028.267 L 428.089 1011.2 L 442.311 998.4 L 446.578 988.444 L 446.578 979.911 L 445.156 975.644 L 438.044 972.8 L 428.089 972.8 L 419.556 978.489 L 415.289 989.867 L 415.289 996.978 L 425.244 998.4 L 430.933 996.978 L 432.356 985.6 L 425.244 987.022 L 423.822 992.711 L 420.978 992.711 L 422.4 984.178 L 428.089 979.911 L 435.2 979.911 L 438.044 984.178 L 438.044 996.978 L 430.933 1004.089 L 426.667 1005.511 L 413.867 1005.511 L 406.756 998.4 L 405.333 989.867 L 409.6 977.067 L 416.711 968.533 L 425.244 964.267 L 432.356 962.844 Z  M 722.489 1002.667 L 756.622 1028.267 L 776.533 1042.489 L 793.6 1055.289 L 812.089 1069.511 L 810.667 1076.622 L 803.556 1085.156 L 797.867 1083.733 L 782.222 1070.933 L 763.733 1055.289 L 749.511 1043.911 L 742.4 1036.8 L 731.022 1026.844 L 719.644 1018.311 L 715.378 1012.622 L 722.489 1002.667 Z  M 539.022 1126.4 L 547.556 1126.4 L 554.667 1133.511 L 556.089 1137.778 L 556.089 1149.156 L 550.4 1160.533 L 536.178 1171.911 L 494.933 1190.4 L 483.556 1196.089 L 476.444 1194.667 L 469.333 1187.556 L 470.756 1183.289 L 507.733 1169.067 L 534.756 1157.689 L 543.289 1150.578 L 546.133 1146.311 L 546.133 1134.933 L 541.867 1133.511 L 531.911 1139.2 L 529.067 1147.733 L 534.756 1144.889 L 539.022 1140.622 L 539.022 1149.156 L 534.756 1153.422 L 523.378 1153.422 L 521.956 1150.578 L 521.956 1142.044 L 527.644 1133.511 L 534.756 1127.822 L 539.022 1126.4 Z  M 543.289 1005.511 L 548.978 1006.933 L 553.244 1011.2 L 553.244 1014.044 L 541.867 1024 L 530.489 1035.378 L 519.111 1045.333 L 497.778 1065.244 L 476.444 1086.578 L 472.178 1086.578 L 465.067 1073.778 L 466.489 1068.089 L 484.978 1053.867 L 504.889 1038.222 L 516.267 1029.689 L 533.333 1014.044 L 543.289 1005.511 Z  M 712.533 1019.733 L 718.222 1021.156 L 731.022 1031.111 L 731.022 1033.956 L 705.422 1049.6 L 694.044 1055.289 L 672.711 1060.978 L 665.6 1059.556 L 651.378 1052.444 L 644.267 1048.178 L 648.533 1045.333 L 678.4 1038.222 L 698.311 1028.267 L 712.533 1019.733 Z  M 723.911 1122.133 L 735.289 1123.556 L 743.822 1130.667 L 745.244 1133.511 L 745.244 1146.311 L 739.556 1150.578 L 731.022 1147.733 L 726.756 1143.467 L 726.756 1139.2 L 732.444 1142.044 L 738.133 1143.467 L 739.556 1137.778 L 736.711 1132.089 L 733.867 1130.667 L 723.911 1130.667 L 722.489 1132.089 L 722.489 1142.044 L 733.867 1154.844 L 746.667 1163.378 L 760.889 1170.489 L 789.333 1177.6 L 804.978 1180.444 L 802.133 1186.133 L 792.178 1194.667 L 777.956 1191.822 L 755.2 1180.444 L 739.556 1170.489 L 726.756 1160.533 L 715.378 1146.311 L 712.533 1134.933 L 715.378 1127.822 L 719.644 1123.556 L 723.911 1122.133 Z  M 534.756 1174.756 L 540.444 1177.6 L 553.244 1187.556 L 567.467 1200.356 L 570.311 1204.622 L 570.311 1218.844 L 563.2 1228.8 L 551.822 1233.067 L 540.444 1231.644 L 529.067 1223.111 L 524.8 1217.422 L 524.8 1204.622 L 530.489 1198.933 L 533.333 1197.511 L 546.133 1197.511 L 554.667 1201.778 L 556.089 1203.2 L 556.089 1213.156 L 551.822 1216 L 541.867 1216 L 539.022 1214.578 L 540.444 1210.311 L 548.978 1210.311 L 550.4 1206.044 L 541.867 1204.622 L 533.333 1206.044 L 533.333 1216 L 541.867 1223.111 L 557.511 1223.111 L 561.778 1217.422 L 560.356 1204.622 L 550.4 1196.089 L 531.911 1184.711 L 526.222 1179.022 L 534.756 1174.756 Z  M 665.6 967.111 L 672.711 968.533 L 695.467 985.6 L 706.844 992.711 L 705.422 1001.244 L 699.733 1001.244 L 686.933 991.289 L 671.289 979.911 L 661.333 972.8 L 662.756 968.533 L 665.6 967.111 Z  M 598.756 965.689 L 604.444 967.111 L 607.289 971.378 L 591.644 982.756 L 573.156 995.556 L 567.467 999.822 L 563.2 999.822 L 561.778 991.289 L 584.533 975.644 L 598.756 965.689 Z  M 597.333 985.6 L 605.867 985.6 L 610.133 992.711 L 608.711 999.822 L 603.022 1006.933 L 600.178 1008.356 L 585.956 1008.356 L 580.267 1005.511 L 580.267 1002.667 L 576 1001.244 L 577.422 995.556 L 583.111 994.133 L 587.378 998.4 L 598.756 999.822 L 601.6 996.978 L 601.6 991.289 L 595.911 989.867 L 597.333 985.6 Z  M 665.6 995.6 L 672.711 998.444 L 665.6 1005.556 L 668.444 1011.244 L 675.556 1012.667 L 686.933 1005.556 L 692.622 1011.244 L 684.089 1018.356 L 681.244 1019.778 L 669.867 1019.778 L 662.756 1015.511 L 658.489 1008.4 L 659.911 998.444 L 665.6 995.6 Z  M 698.311 115.2 L 702.578 115.2 L 704 119.467 L 699.733 128 L 688.356 133.689 L 689.778 122.311 L 698.311 115.2 Z  M 644.267 951.467 L 651.378 954.311 L 651.378 960 L 648.533 962.844 L 642.844 961.422 L 637.156 957.156 L 637.156 954.311 L 644.267 951.467 Z  M 621.511 950.044 L 630.044 952.889 L 630.044 957.156 L 624.356 961.422 L 618.667 960 L 614.4 955.733 L 621.511 950.044 Z " fill-rule="evenodd" fill="rgb(1,1,1)"/></g></svg>